<svg width="57" height="24" viewBox="0 0 64 30" fill="none" xmlns="http://www.w3.org/2000/svg">
  <path d="M2.03235 21.4862C2.19547 20.4531 3.06603 19.5101 3.65815 18.6922C4.62782 17.3529 5.72557 16.0955 6.75264 14.7985C8.36145 12.767 10.2185 10.899 12.1116 9.13212C13.5005 7.83587 14.8084 6.49386 16.3128 5.3272C17.5541 4.36453 19.0444 3.04427 20.6608 2.85776C21.135 2.80304 22.6948 2.49759 22.9219 3.17882C23.0962 3.70172 23.0789 4.49266 22.7477 4.94807C22.4682 5.33233 22.3096 5.78178 22.0441 6.17426C21.7752 6.57171 21.5365 6.98541 21.2961 7.40044C20.5089 8.75892 19.8865 10.1868 19.2501 11.6186C18.3851 13.5649 16.9611 15.3351 16.7397 17.5241C16.7227 17.6922 16.6223 18.0519 16.8627 18.0433C17.1398 18.0334 17.5056 17.8717 17.7405 17.7325C18.4332 17.322 18.9958 16.6569 19.4175 15.9803C20.4516 14.321 22.4418 12.579 24.4725 12.452C25.1965 12.4068 25.2891 12.7077 25.2718 13.4118C25.2552 14.0817 24.9093 14.6144 24.6706 15.2152C24.5194 15.5959 24.2193 16.035 24.1685 16.4414C24.1081 16.9249 24.9283 16.67 25.1864 16.5541C25.7158 16.3164 26.1585 15.8746 26.5902 15.4953C27.0974 15.0496 27.668 14.6835 28.175 14.2315C28.7806 13.6916 29.3476 13.2709 30.0945 12.9405C31.114 12.4894 32.1758 11.9506 33.2505 11.6494C33.4502 11.5934 34.2411 11.2351 34.1727 11.6767C34.1155 12.0459 33.8856 12.3806 33.7218 12.7082C33.3868 13.3783 33.004 14.0043 32.6288 14.6517C32.288 15.2398 31.867 15.8243 31.6383 16.4687C31.5949 16.5912 31.3468 17.1068 31.6486 16.8274C32.5261 16.0149 33.449 15.1756 34.1488 14.2042C34.8929 13.1713 35.5986 12.2411 36.6797 11.5401C37.2317 11.1821 39.0478 10.2556 39.1013 11.5128C39.1375 12.3632 39.0548 13.192 38.6197 13.9412C38.2807 14.5251 38.966 13.9427 39.1047 13.7465C39.3716 13.3692 39.5643 12.9303 39.7366 12.5033C39.7861 12.3806 39.8425 11.9884 39.8425 12.1207C39.8425 12.4949 39.8625 12.8743 39.8425 13.2479C39.8347 13.3923 39.5944 13.8335 39.6102 13.7875C39.7881 13.2716 39.9654 12.7655 39.9654 12.2129C39.9654 11.7954 40.7444 12.1878 41.0004 12.23C41.5869 12.3267 42.1855 12.3797 42.7799 12.3871C43.1458 12.3917 43.5986 12.4496 43.948 12.312C44.2366 12.1983 44.487 11.9652 44.7609 11.8202C44.881 11.7566 44.6237 11.7821 44.6208 11.7826C44.1829 11.8599 43.8422 12.2206 43.5313 12.5101C43.0295 12.9772 42.575 13.4676 42.1207 13.9788C41.8677 14.2633 41.9914 13.3745 41.9977 13.2274C42.0266 12.5491 42.91 11.9033 43.3639 11.4854C43.5772 11.2891 43.859 10.9962 44.1597 10.9389C44.6778 10.8403 44.9718 11.3843 45.1161 11.786C45.2901 12.2706 45.389 12.7811 45.4645 13.2888C45.4655 13.2956 45.5072 13.8478 45.6216 13.7875C45.7464 13.7218 45.8214 13.4111 45.8744 13.2957C46.0835 12.8393 46.2999 12.4048 46.6702 12.0558C47.2343 11.5242 47.8934 11.2821 48.5385 10.8911C49.2777 10.4431 50.0045 9.93874 50.6425 9.35413C52.2807 7.85279 53.3909 5.95943 54.5362 4.08736" stroke="#CDFFF4" stroke-width="6" stroke-linecap="round"/>
</svg>
