<svg width="87" height="40" viewBox="0 0 95 45" fill="none" xmlns="http://www.w3.org/2000/svg">
  <path d="M4 25.1115C4 21.7419 4 18.3723 4 15.0027C4 13.9006 4 12.7985 4 11.6965C4 11.2142 4.06306 12.6741 4.23786 13.1236C5.42319 16.1716 6.19635 19.3332 7.18726 22.4475C8.17425 25.5495 9.64902 21.3178 10.4221 19.9501C11.9681 17.2149 13.5362 13.4822 15.7976 11.2208C17.0061 10.0122 17.5666 13.4207 17.7242 14.0512C18.1798 15.8736 18.3887 17.807 19.3892 19.3078C19.7967 19.9191 19.9008 17.9274 20.079 17.2147C20.7714 14.445 21.2649 11.6316 21.9818 8.866C22.0483 8.60959 23.4093 3.08189 24.0274 4.13268C25.4736 6.59129 26.191 9.58494 27.1195 12.2673C27.8015 14.2375 27.8092 15.201 28.5942 12.9333C29.0485 11.621 29.8266 8.94999 31.0679 8.08108C33.3529 6.48156 36.4385 25.0289 37.2997 24.9212C37.4404 24.9036 37.776 21.7566 37.823 21.5437C38.2304 19.6983 38.8881 17.8785 39.4404 16.073C39.5149 15.8293 40.812 11.4535 41.5811 12.3625C42.2772 13.1852 42.6507 15.0884 42.9845 16.073C43.9925 19.0468 44.5795 22.1202 45.3392 25.1591C45.4671 25.6704 46.9636 32.1288 47.2421 30.2492C48.2271 23.6001 48.9546 16.8268 48.9546 10.1028C48.9546 9.73374 48.5043 3.94893 49.5968 4.79868C50.7605 5.70374 51.4897 7.66084 52.1657 8.88979C54.1505 12.4986 55.3393 16.5182 56.5898 20.4258C57.7023 23.9025 58.1002 28.5581 59.8722 31.7477C60.2911 32.5017 60.5652 28.8975 60.7047 28.0609C61.3765 24.0298 61.5904 19.9936 61.8226 15.9303C61.8475 15.4935 61.9223 12.2897 62.3221 11.9343C63.0018 11.3301 66.3173 17.2688 66.5083 17.5953C69.2859 22.3423 70.8841 27.6038 72.5023 32.818C72.8611 33.9741 73.0369 37.5296 73.4537 34.7684C74.2738 29.3352 74.4526 23.8226 74.976 18.3564C75.1966 16.0516 74.9352 9.09971 75.0711 11.4111C75.1627 12.9688 76.1834 14.7248 76.6885 16.1682C77.8302 19.4299 78.7606 22.7746 79.8282 26.0629C80.8703 29.2726 81.9604 32.5462 82.7776 35.815" stroke="#CDFFF4" stroke-width="7" stroke-linecap="round"/>
</svg>
