<svg width="59" height="30" viewBox="0 0 65 35" fill="none" xmlns="http://www.w3.org/2000/svg">
  <path d="M4.25754 23.7141C4.25754 19.901 7.98366 15.3257 9.94006 12.1737C11.2368 10.0844 12.4149 8.88745 14.2896 7.29797C15.5665 6.21544 16.4223 4.83792 17.9903 4.14101C18.8902 3.74103 19.133 3.27889 19.6565 4.45671C19.9313 5.07515 19.7266 6.15221 19.7266 6.82442C19.7266 8.92856 18.5078 10.8563 17.9903 12.8226C16.8619 17.1104 13.9594 20.9879 13.7284 25.6083C13.5847 28.4819 17.9051 22.6195 18.3937 21.82C19.547 19.9328 20.3407 17.7332 21.9365 16.1374C22.927 15.147 25.4638 12.585 26.6719 14.6993C27.1952 15.615 27.5255 19.9258 28.0926 19.9258C29.918 19.9258 33.0578 13.4082 34.4065 15.5061C34.9563 16.3614 35.4905 18.4245 36.4585 18.9085C36.9378 19.1482 38.4645 16.9418 39.0016 16.6285C39.9428 16.0795 40.3389 17.1871 40.7204 17.8738C41.2791 18.8795 42.4412 17.9753 43.0881 17.4002C44.2198 16.3943 44.3283 17.8337 45.1401 18.0141C45.6706 18.132 45.7494 16.8783 45.9995 16.4531C46.5144 15.5779 47.6918 15.9074 48.1392 15.3482C48.4059 15.0148 48.9762 14.7915 49.3318 14.559C50.1081 14.0514 50.4012 13.4676 50.9805 12.7349C52.2026 11.1893 53.239 9.19241 53.962 7.33304C54.1099 6.9528 55.0845 4.77324 55.0845 5.0881" stroke="#CDFFF4" stroke-width="7" stroke-linecap="round"/>
</svg>
