<svg width="70" height="39" viewBox="0 0 75 45" fill="none" xmlns="http://www.w3.org/2000/svg">
  <path d="M3.00002 21.0589C3.00002 18.1628 2.97835 15.12 4.53352 12.5651C4.90723 11.9511 5.61108 11.5115 5.94804 12.3999C6.24185 13.1745 6.66446 13.8875 6.87343 14.7001C7.17506 15.8731 7.35007 17.1772 7.40883 18.3818C7.45229 19.2727 7.54853 20.3621 7.8517 21.2043C7.98625 21.578 8.20893 21.5707 8.59201 21.5282C9.82158 21.3915 10.419 19.7158 10.7336 18.7718C11.387 16.8117 11.7535 14.7973 12.558 12.889C12.7723 12.3805 14.2043 8.93707 15.0433 9.51794C15.969 10.1588 16.4399 11.9812 16.709 12.9948C17.469 15.8574 17.8079 18.9827 17.9318 21.9314C18.0324 24.3248 17.9481 26.7178 18.0838 29.1097C18.1187 29.7239 17.8679 31.1578 18.2954 31.7074C18.5801 32.0736 18.632 32.0601 18.8903 31.6347C19.3314 30.9081 19.5486 30.0388 19.7958 29.2353C20.3686 27.3739 20.9159 25.4895 21.3227 23.5838C21.9035 20.8631 22.3462 18.1302 22.8033 15.3875C23.0377 13.9815 23.2512 12.5369 23.7023 11.1836C23.7958 10.9031 23.821 10.5699 24.1782 10.5887C25.6773 10.6676 25.8663 13.4975 26.0091 14.5084C26.3733 17.0858 26.3033 19.6813 26.3198 22.2751C26.3267 23.3572 26.5578 24.4489 26.5578 25.5205C26.5578 26.117 27.1249 25.0979 27.1593 25.0314C28.5253 22.3847 29.3451 19.3475 30.2064 16.5112C31.1049 13.553 32.0807 10.6073 32.9231 7.63411C32.9785 7.43872 33.4509 5.71062 33.8154 5.71062C34.2829 5.71062 34.5104 8.00143 34.5558 8.30171C34.9874 11.1597 35.5013 13.9687 35.7852 16.8483C35.9549 18.5696 36.2563 20.2788 36.314 22.0107C36.3316 22.5394 36.3603 23.2269 36.5586 23.7226C36.6553 23.9646 36.7501 23.236 36.8097 22.9823C37.175 21.4301 37.39 19.8523 37.5699 18.2695C38.0581 13.9729 38.5624 9.61528 39.7908 5.45945C39.9446 4.93927 40.2104 3.37316 40.7426 3.00056C40.8059 2.95628 41.5372 5.56572 41.6085 5.83621C43.4847 12.946 43.4733 20.3413 44.1401 27.6027C44.2511 28.8104 44.4329 29.964 44.7615 31.1324C45.0695 32.2276 45.1563 33.3478 45.4225 34.4505C45.5211 34.8591 45.5546 35.5742 46.1231 35.5742C47.4554 35.5742 47.9819 32.427 48.1524 31.4827C48.91 27.2868 48.8067 23.0794 48.8067 18.8379C48.8067 14.5437 48.8821 10.2422 48.8067 5.94858C48.8015 5.64903 48.7625 4.986 48.6613 5.61808C48.4284 7.07375 48.4498 8.57054 48.4498 10.0401C48.4498 11.1602 48.4215 12.0276 49.0183 13.008C49.3404 13.5372 49.5824 14.0396 49.9899 14.515C51.5798 16.3699 53.0782 12.9252 53.5923 11.7256C54.0388 10.6838 54.4869 9.60531 55.1721 8.6917C55.5282 8.21691 55.9341 9.019 56.0644 9.25354C57.245 11.3785 57.4774 13.9222 58.1466 16.227C58.1836 16.3545 58.4572 17.5424 58.8009 17.1987C59.6959 16.3037 60.0284 14.3831 60.3543 13.2261C60.7539 11.8073 61.1167 10.0543 62.0067 8.8305C62.1242 8.66905 62.4576 8.12841 62.6347 8.44713C63.1402 9.35711 63.5873 10.3913 64.2806 11.177C65.0035 11.9963 65.9284 12.3352 66.7725 12.9683" stroke="#CDFFF4" stroke-width="5" stroke-linecap="round"/>
</svg>
