<svg width="42" height="42" viewBox="0 0 42 42" fill="none" xmlns="http://www.w3.org/2000/svg">
  <rect x="19.8158" y="2.29747" width="3.02188" height="35.6346" fill="#017F9A"/>
  <path d="M7.72825 39.2279L7.63958 39.721L7.63958 39.721L7.72825 39.2279ZM17.5494 37.9321L12.0498 36.2866L13.2366 41.8887L17.5494 37.9321ZM0.929016 36.6363C0.678064 37.0747 0.678125 37.0747 0.678201 37.0747C0.678247 37.0748 0.678338 37.0748 0.678429 37.0749C0.67861 37.075 0.678852 37.0751 0.679153 37.0752C0.679755 37.0756 0.680596 37.076 0.681674 37.0766C0.683828 37.0778 0.686928 37.0795 0.690954 37.0817C0.699006 37.0861 0.710762 37.0924 0.726071 37.1007C0.756686 37.1172 0.801517 37.1412 0.859335 37.1717C0.974956 37.2328 1.14261 37.3202 1.35246 37.4262C1.77193 37.6381 2.36126 37.9251 3.04162 38.2261C4.39124 38.8231 6.14062 39.4938 7.63958 39.721L7.81692 38.7348C6.45451 38.5283 4.80427 37.9032 3.46962 37.3128C2.80784 37.0201 2.23387 36.7405 1.82557 36.5342C1.62154 36.4312 1.45919 36.3466 1.34828 36.288C1.29284 36.2587 1.25027 36.2359 1.22181 36.2205C1.20757 36.2129 1.19687 36.2071 1.18985 36.2032C1.18633 36.2013 1.18374 36.1999 1.18209 36.199C1.18126 36.1986 1.18067 36.1983 1.18032 36.1981C1.18014 36.198 1.18002 36.1979 1.17996 36.1979C1.17993 36.1978 1.17994 36.1979 1.17992 36.1978C1.17994 36.1979 1.17997 36.1979 0.929016 36.6363ZM7.63958 39.721C9.33933 39.9786 11.4132 39.7721 13.2063 39.4634L13.0617 38.4807C11.2977 38.7844 9.35369 38.9677 7.81692 38.7348L7.63958 39.721Z" fill="#A9A9A9"/>
  <path d="M31.0892 2.55561L31.1671 2.06101L31.1671 2.06101L31.0892 2.55561ZM40.9475 4.14764L36.6055 0.45913L35.4619 6.13345L40.9475 4.14764ZM23.9709 3.29753C24.086 3.77962 24.0859 3.77964 24.0859 3.77964C24.0859 3.77964 24.0859 3.77964 24.0859 3.77964C24.086 3.77962 24.0861 3.77959 24.0863 3.77955C24.0866 3.77946 24.0872 3.7793 24.0881 3.77907C24.0898 3.77862 24.0926 3.77791 24.0963 3.77695C24.1038 3.77503 24.1152 3.7721 24.1304 3.76825C24.1608 3.76055 24.2064 3.74914 24.2658 3.73466C24.3846 3.7057 24.5584 3.66449 24.7763 3.61606C25.2124 3.51913 25.8235 3.39364 26.5224 3.27962C27.9326 3.04957 29.6524 2.87453 31.0113 3.05022L31.1671 2.06101C29.6579 1.86589 27.8186 2.06181 26.3866 2.29541C25.6644 2.41323 25.0338 2.54274 24.5833 2.64286C24.3579 2.69295 24.1773 2.73577 24.0524 2.76622C23.99 2.78144 23.9415 2.79358 23.9082 2.80199C23.8916 2.8062 23.8788 2.80947 23.87 2.81174C23.8656 2.81287 23.8622 2.81375 23.8599 2.81437C23.8587 2.81468 23.8577 2.81492 23.8571 2.8151C23.8567 2.81519 23.8564 2.81526 23.8562 2.81531C23.8561 2.81534 23.856 2.81537 23.856 2.81538C23.8559 2.81541 23.8558 2.81543 23.9709 3.29753ZM31.0113 3.05022C32.628 3.25923 34.6427 3.57664 36.4298 3.87348L36.6211 2.8895C34.8308 2.59214 32.8019 2.27237 31.1671 2.06101L31.0113 3.05022Z" fill="#00C975"/>
</svg>
