<?xml version="1.0" encoding="UTF-8" standalone="no"?>
<!DOCTYPE svg PUBLIC "-//W3C//DTD SVG 1.1//EN" "http://www.w3.org/Graphics/SVG/1.1/DTD/svg11.dtd">
<svg width="100%" height="100%" viewBox="0 0 80 80" version="1.1" xmlns="http://www.w3.org/2000/svg" xmlns:xlink="http://www.w3.org/1999/xlink" xml:space="preserve" xmlns:serif="http://www.serif.com/" style="fill-rule:evenodd;clip-rule:evenodd;stroke-linecap:round;stroke-linejoin:round;stroke-miterlimit:1.5;">
    <g transform="matrix(0.999894,-0.0145743,0.0145743,0.999894,33.0762,11.547)">
        <path d="M41.553,2.606L42.183,4.544L44.221,4.544L42.572,5.742L43.202,7.681L41.553,6.483L39.904,7.681L40.534,5.742L38.884,4.544L40.923,4.544L41.553,2.606Z" style="fill:rgb(255,154,76);stroke:rgb(255,154,76);stroke-width:1px;"/>
    </g>
    <g transform="matrix(0.499565,-0.426128,0.387724,0.454543,52.5131,53.2112)">
        <path d="M41.553,2.606L42.183,4.544L44.221,4.544L42.572,5.742L43.202,7.681L41.553,6.483L39.904,7.681L40.534,5.742L38.884,4.544L40.923,4.544L41.553,2.606Z" style="fill:rgb(255,154,76);stroke:rgb(255,154,76);stroke-width:1.59px;"/>
    </g>
    <g transform="matrix(0.356326,-0.0912046,0.0912046,0.356326,46.8552,71.7442)">
        <path d="M41.553,2.606L42.183,4.544L44.221,4.544L42.572,5.742L43.202,7.681L41.553,6.483L39.904,7.681L40.534,5.742L38.884,4.544L40.923,4.544L41.553,2.606Z" style="fill:rgb(35,117,29);stroke:rgb(35,117,29);stroke-width:2.72px;"/>
    </g>
    <g transform="matrix(0.931775,0.363037,-0.363037,0.931775,37.0499,43.398)">
        <path d="M41.553,2.606L42.183,4.544L44.221,4.544L42.572,5.742L43.202,7.681L41.553,6.483L39.904,7.681L40.534,5.742L38.884,4.544L40.923,4.544L41.553,2.606Z" style="fill:rgb(254,238,12);stroke:rgb(255,243,76);stroke-width:1px;"/>
    </g>
    <g transform="matrix(1.73565,-0.147392,0.149953,1.76581,-52.4982,67.7625)">
        <path d="M41.553,2.606L42.183,4.544L44.221,4.544L42.572,5.742L43.202,7.681L41.553,6.483L39.904,7.681L40.534,5.742L38.884,4.544L40.923,4.544L41.553,2.606Z" style="fill:rgb(254,238,12);stroke:rgb(255,243,76);stroke-width:0.57px;"/>
    </g>
    <g transform="matrix(0.634068,-0.162295,0.162295,0.634068,-20.0302,27.785)">
        <path d="M41.553,2.606L42.183,4.544L44.221,4.544L42.572,5.742L43.202,7.681L41.553,6.483L39.904,7.681L40.534,5.742L38.884,4.544L40.923,4.544L41.553,2.606Z" style="fill:rgb(255,76,77);stroke:rgb(255,76,77);stroke-width:1.53px;"/>
    </g>
    <g transform="matrix(0.770991,0.292634,-0.292634,0.770991,-24.4314,31.1462)">
        <path d="M41.553,2.606L42.183,4.544L44.221,4.544L42.572,5.742L43.202,7.681L41.553,6.483L39.904,7.681L40.534,5.742L38.884,4.544L40.923,4.544L41.553,2.606Z" style="fill:rgb(76,85,255);stroke:rgb(76,85,255);stroke-width:1.21px;"/>
    </g>
    <g transform="matrix(1.99656,0,0,1.41573,-33.9105,-1.74607)">
        <path d="M35.859,13.264C36.207,10.065 35.665,7.031 34.027,4.2" style="fill:none;stroke:rgb(10,171,137);stroke-width:1.73px;"/>
    </g>
    <g transform="matrix(1,0,0,1,-0.744069,-3.67537)">
        <path d="M22.154,7.875C26.331,9.813 28.44,12.978 29.205,16.941" style="fill:rgb(76,85,255);stroke:rgb(76,85,255);stroke-width:3px;"/>
    </g>
    <g transform="matrix(1,0,0,1,-4.02728,-1.1505)">
        <path d="M24.027,18.669C22.42,16.986 20.578,15.598 18.572,14.416" style="fill:rgb(255,76,77);stroke:rgb(255,76,77);stroke-width:3px;"/>
    </g>
    <path d="M14.775,36.216C11.038,35.291 7.794,36.62 4.998,40" style="fill:none;stroke:rgb(255,76,178);stroke-width:3px;"/>
    <path d="M17.68,48.239C12.359,50.281 9.35,52.949 8.653,56.245" style="fill:rgb(0,171,137);stroke:rgb(10,171,137);stroke-width:3px;"/>
    <path d="M16.258,60.19L16.967,60.104" style="fill:none;stroke:rgb(255,243,76);stroke-width:3px;"/>
    <path d="M13.881,25.797L14.775,25.935" style="fill:none;stroke:rgb(33,117,31);stroke-width:3px;"/>
    <path d="M38.393,65.043C36.491,67.988 35.991,70.925 36.084,73.859" style="fill:none;stroke:rgb(33,117,31);stroke-width:3px;"/>
    <path d="M47.373,63.348C49.836,66.822 50.897,70.329 50.978,73.859" style="fill:rgb(76,85,255);stroke:rgb(76,85,255);stroke-width:3px;"/>
    <g transform="matrix(1,0,0,1,-1.88232,0.579899)">
        <path d="M64.996,50.781C68.301,52.493 70.964,54.739 72.559,57.872" style="fill:none;stroke:rgb(255,243,76);stroke-width:3px;"/>
    </g>
    <g transform="matrix(1,0,0,1,-2.83215,-0.646297)">
        <path d="M64.996,40.646C70.173,41.95 74.582,44.854 78.224,49.357" style="fill:rgb(255,76,77);stroke:rgb(255,76,77);stroke-width:3px;"/>
    </g>
    <path d="M67.002,29.337C69.834,26.892 73.257,25.301 78.224,25.935" style="fill:none;stroke:rgb(33,117,31);stroke-width:3px;"/>
    <path d="M63.114,21.954C64.773,20.421 66.797,19.173 69.474,18.434" style="fill:none;stroke:rgb(255,243,76);stroke-width:3px;"/>
    <path d="M57.158,16.555C59.037,11.64 63.159,8.877 69.474,8.217" style="fill:none;stroke:rgb(33,117,31);stroke-width:3px;"/>
    <path d="M49.277,16.096C49.017,12.729 49.874,9.848 52.786,6.543" style="fill:rgb(255,76,77);stroke:rgb(255,76,77);stroke-width:3px;"/>
    <g transform="matrix(0.968769,-0.247965,0.247965,0.968769,3.664,10.6704)">
        <path d="M41.553,2.606L42.183,4.544L44.221,4.544L42.572,5.742L43.202,7.681L41.553,6.483L39.904,7.681L40.534,5.742L38.884,4.544L40.923,4.544L41.553,2.606Z" style="fill:rgb(76,85,255);stroke:rgb(76,85,255);stroke-width:1px;"/>
    </g>
    <g transform="matrix(0.998526,-0.0542839,0.0542839,0.998526,-31.7107,5.11272)">
        <path d="M41.553,2.606L42.183,4.544L44.221,4.544L42.572,5.742L43.202,7.681L41.553,6.483L39.904,7.681L40.534,5.742L38.884,4.544L40.923,4.544L41.553,2.606Z" style="fill:rgb(255,76,77);stroke:rgb(255,76,77);stroke-width:1px;"/>
    </g>
</svg>
