<svg width="316" height="316" viewBox="0 0 316 316" fill="none" xmlns="http://www.w3.org/2000/svg">
  <path fill-rule="evenodd" clip-rule="evenodd" d="M316 0H0V316H316V0ZM82.6386 52.7147L104.237 45.5039L115.142 73.1698C116.819 77.4275 118.179 81.8043 119.208 86.2638C123.055 102.944 124.879 120.028 124.64 137.145L123.919 188.482L125.794 160.936C127.645 133.728 126.116 106.397 121.242 79.5653L112.515 45.5039L139.052 44.2345C141.537 70.0187 141.25 95.995 138.194 121.718L132.803 167.102L139.502 124.122C143.62 97.6959 145.588 70.979 145.387 44.2345L146.484 44.3312C155.343 45.1119 164.131 46.5493 172.777 48.6317L168.535 58.5354C155.87 88.1091 147.212 119.242 142.79 151.109L143.413 147.912C150.099 113.584 162.26 80.5546 179.432 50.0872L181.256 50.9892C187.973 54.3088 194.151 58.6243 199.578 63.7896C187.965 74.2152 178.399 86.7161 171.372 100.651L166.632 110.048L170.015 104.442C179.061 89.4527 190.707 76.1959 204.406 65.2941L225.679 83.0223C212.253 86.369 199.683 92.5061 188.787 101.034L182.006 106.341L192.625 99.2904C203.119 92.3228 214.958 87.6341 227.378 85.527L245.85 106.341L245.356 106.239C235.253 104.159 224.862 103.883 214.662 105.422L212.202 105.793C200.232 107.599 188.96 112.567 179.55 120.185C167.442 129.987 159.066 143.645 155.819 158.881L152.46 174.643C151.219 180.461 150.439 186.367 150.124 192.307L148.028 231.863C147.842 235.39 146.506 238.759 144.224 241.456C141.151 245.088 136.634 247.183 131.875 247.183H127.802C125.261 247.183 122.768 246.493 120.589 245.185C116.366 242.651 113.782 238.088 113.782 233.162V209.677L115.151 167.102L113.611 142.381C112.883 130.677 110.986 119.073 107.952 107.745C103.416 90.813 96.3803 74.6527 87.0753 59.7978L82.6386 52.7147ZM77.0109 54.431L73.1805 48.4854L61.289 56.1463L65.1195 62.092C75.2855 77.872 86.7572 106.401 91.3096 144.339C94.1424 167.946 93.2229 190.186 92.1993 208.473C92.1092 210.081 92.018 211.665 91.9284 213.221C91.5138 220.418 91.133 227.028 91.0702 232.62C90.9978 239.05 91.2924 245.397 93.1159 250.119C94.9301 255.438 99.0786 259.877 103.761 263.174C108.621 266.598 114.68 269.247 121.218 270.651C134.303 273.461 150.261 271.417 162.538 259.142L162.755 258.925L162.953 258.688C167.236 253.588 168.9 246.819 169.749 240.124C170.486 234.312 170.707 227.511 170.938 220.35L170.939 220.33C170.978 219.15 171.016 217.959 171.057 216.762C171.649 199.567 172.826 179.061 180.616 156.78C188.485 139.12 200.555 130.761 212.32 127.161C224.445 123.449 236.564 124.722 243.759 126.957L250.513 129.056L254.71 115.547L247.956 113.448C238.488 110.507 223.432 108.965 208.179 113.634C192.621 118.395 177.168 129.549 167.564 151.318L167.454 151.568L167.363 151.825C158.737 176.35 157.523 198.764 156.92 216.275C156.876 217.548 156.836 218.786 156.797 219.99C156.559 227.223 156.362 233.248 155.716 238.345C154.98 244.152 153.783 247.472 152.292 249.379C144.216 257.278 133.668 258.857 124.188 256.821C119.396 255.791 115.118 253.872 111.907 251.609C108.579 249.267 106.972 246.981 106.486 245.498L106.416 245.284L106.332 245.075C105.601 243.247 105.14 239.442 105.215 232.78C105.273 227.548 105.63 221.353 106.043 214.169C106.134 212.583 106.228 210.948 106.323 209.265C107.353 190.867 108.345 167.575 105.354 142.654C100.59 102.949 88.5213 72.2977 77.0109 54.431Z" fill="#E13C3C"/>
</svg>
