<svg width="314" height="314" viewBox="0 0 314 314" fill="none" xmlns="http://www.w3.org/2000/svg">
<path fill-rule="evenodd" clip-rule="evenodd" d="M313.703 0.494141H0.955078V313.242H313.703V0.494141ZM82.7432 52.6663L104.119 45.5297L114.912 72.9109C116.572 77.1248 117.918 81.4565 118.936 85.8701C122.744 102.379 124.549 119.287 124.312 136.228L123.599 187.036L125.454 159.774C127.286 132.846 125.773 105.796 120.949 79.2406L112.312 45.5297L138.576 44.2734C141.035 69.7922 140.751 95.5012 137.727 120.959L132.391 165.876L139.021 123.339C143.097 97.1846 145.045 70.7427 144.846 44.2734L145.932 44.3691C154.699 45.1418 163.397 46.5644 171.954 48.6253L167.756 58.4271C155.221 87.6965 146.652 118.509 142.276 150.048L142.892 146.884C149.509 112.909 161.545 80.2197 178.54 50.0659L180.346 50.9586C186.994 54.244 193.108 58.5151 198.479 63.6272C186.986 73.9455 177.518 86.3178 170.563 100.109L165.872 109.41L169.22 103.861C178.173 89.0262 189.699 75.9059 203.257 65.1163L224.312 82.662C211.024 85.9743 198.583 92.0482 187.799 100.488L181.088 105.741L191.598 98.7627C201.984 91.8668 213.701 87.2263 225.993 85.1409L244.275 105.741L243.786 105.64C233.787 103.581 223.503 103.308 213.408 104.831L210.973 105.198C199.126 106.986 187.97 111.903 178.657 119.442C166.674 129.143 158.384 142.661 155.17 157.74L151.846 173.34C150.618 179.098 149.846 184.943 149.534 190.822L147.46 229.971C147.276 233.462 145.953 236.796 143.695 239.465C140.653 243.06 136.183 245.133 131.473 245.133H127.442C124.927 245.133 122.46 244.45 120.303 243.156C116.124 240.648 113.566 236.132 113.566 231.257V208.013L114.921 165.876L113.397 141.41C112.676 129.826 110.799 118.342 107.796 107.13C103.307 90.3725 96.3435 74.3785 87.1343 59.6765L82.7432 52.6663ZM77.1734 54.365L73.3824 48.4805L61.6133 56.0626L65.4044 61.9471C75.4658 77.5647 86.8194 105.8 91.325 143.348C94.1286 166.712 93.2186 188.723 92.2055 206.822C92.1164 208.413 92.0261 209.981 91.9374 211.521C91.5271 218.644 91.1502 225.186 91.088 230.72C91.0164 237.084 91.308 243.366 93.1127 248.039C94.9082 253.303 99.014 257.697 103.648 260.96C108.458 264.348 114.455 266.97 120.926 268.36C133.876 271.141 149.67 269.118 161.82 256.969L162.035 256.754L162.231 256.52C166.47 251.472 168.117 244.773 168.957 238.147C169.687 232.395 169.905 225.664 170.134 218.576L170.135 218.557C170.173 217.389 170.211 216.21 170.252 215.025C170.838 198.007 172.002 177.712 179.712 155.661C187.5 138.182 199.446 129.909 211.09 126.346C223.09 122.673 235.085 123.933 242.205 126.145L248.89 128.222L253.044 114.852L246.359 112.775C236.989 109.864 222.088 108.338 206.992 112.959C191.594 117.671 176.3 128.71 166.795 150.255L166.686 150.502L166.596 150.757C158.058 175.029 156.857 197.213 156.26 214.543C156.217 215.803 156.177 217.028 156.138 218.22C155.903 225.379 155.708 231.342 155.069 236.386C154.34 242.133 153.155 245.419 151.68 247.307C143.687 255.124 133.247 256.687 123.865 254.672C119.122 253.653 114.888 251.753 111.71 249.514C108.417 247.196 106.826 244.933 106.345 243.466L106.276 243.254L106.193 243.047C105.469 241.238 105.013 237.472 105.087 230.878C105.145 225.7 105.498 219.569 105.907 212.459C105.997 210.889 106.09 209.271 106.184 207.605C107.203 189.397 108.185 166.345 105.225 141.68C100.51 102.384 88.5654 72.0478 77.1734 54.365Z" fill="#E13C3C"/>
</svg>
