<svg width="216" height="42" viewBox="0 0 216 42" fill="none" xmlns="http://www.w3.org/2000/svg">
<path d="M27.2057 40.9782C26.2851 40.9782 25.5056 40.7511 24.8672 40.2969C24.2412 39.8427 23.7624 39.1798 23.431 38.3082C23.3082 37.9645 23.1977 37.541 23.0995 37.0377C23.0136 36.5344 22.9338 35.982 22.8601 35.3805C22.7988 34.7667 22.7435 34.1406 22.6944 33.5023C22.6576 32.864 22.633 32.2379 22.6208 31.6241C22.6085 31.0104 22.6024 30.4518 22.6024 29.9485C22.6024 28.0581 22.7497 26.407 23.0443 24.9953C23.3512 23.5836 23.7931 22.3928 24.3701 21.4231C24.9593 20.441 25.6897 19.6554 26.5613 19.0661C27.4328 18.4646 28.4456 18.0288 29.5995 17.7588C30.7534 17.4887 32.0362 17.3537 33.4479 17.3537C34.7491 17.3537 36.0012 17.501 37.2043 17.7956C38.4073 18.0902 39.4814 18.5321 40.4266 19.1214C41.3841 19.7106 42.1391 20.4349 42.6915 21.2942C43.2562 22.1535 43.5385 23.1478 43.5385 24.2772C43.5385 25.2224 43.3605 26.0142 43.0045 26.6525C42.6608 27.2786 42.2005 27.788 41.6235 28.1808C41.0588 28.5736 40.445 28.8805 39.7822 29.1015C39.1193 29.3102 38.4687 29.4759 37.8303 29.5987C37.4866 29.66 37.2227 29.746 37.0385 29.8564C36.8544 29.9546 36.7623 30.0835 36.7623 30.2431C36.7623 30.3659 36.879 30.5439 37.1122 30.7771C37.3454 30.9981 37.64 31.2681 37.996 31.5873C38.3643 31.8942 38.7449 32.2318 39.1377 32.6001C39.5428 32.956 39.9172 33.3243 40.2609 33.7049C40.5187 33.9872 40.8072 34.3064 41.1263 34.6624C41.4578 35.0061 41.7831 35.3621 42.1023 35.7303C42.4214 36.0986 42.7099 36.4546 42.9677 36.7983C43.2378 37.1298 43.4526 37.4305 43.6122 37.7006C43.7717 37.9584 43.8515 38.1487 43.8515 38.2714C43.8515 38.787 43.692 39.2228 43.3728 39.5788C43.0536 39.9348 42.6362 40.1987 42.1207 40.3705C41.6051 40.5547 41.0588 40.6468 40.4819 40.6468C39.9786 40.6468 39.4691 40.5424 38.9535 40.3337C38.438 40.1373 37.9285 39.855 37.4252 39.4867C36.9219 39.1062 36.4248 38.6581 35.9337 38.1425C35.455 37.6269 34.9885 37.0561 34.5343 36.4301C33.9328 35.6444 33.3743 34.957 32.8587 34.3677C32.3431 33.7662 31.9012 33.2936 31.5329 32.9499C31.1769 32.5939 30.9191 32.4159 30.7595 32.4159C30.6613 32.4159 30.5815 32.4589 30.5202 32.5448C30.4711 32.6185 30.4342 32.7596 30.4097 32.9683C30.3851 33.1647 30.3667 33.4225 30.3544 33.7417C30.3544 34.0609 30.3544 34.4598 30.3544 34.9386C30.3544 35.135 30.3544 35.3744 30.3544 35.6567C30.3667 35.939 30.3729 36.2398 30.3729 36.559C30.3729 36.8658 30.3667 37.1727 30.3544 37.4796C30.3544 37.7742 30.3483 38.0443 30.336 38.2898C30.3238 38.5353 30.3053 38.7256 30.2808 38.8606C30.1212 39.6586 29.7529 40.211 29.176 40.5179C28.599 40.8247 27.9423 40.9782 27.2057 40.9782ZM32.1037 27.6284C32.4229 27.6284 32.8034 27.5977 33.2454 27.5363C33.6873 27.4627 34.1353 27.3461 34.5895 27.1865C35.056 27.0146 35.4857 26.7998 35.8785 26.542C36.2713 26.2719 36.5843 25.9466 36.8176 25.5661C37.0631 25.1733 37.1859 24.7191 37.1859 24.2035C37.1859 23.7002 37.0631 23.2644 36.8176 22.8961C36.5843 22.5156 36.2652 22.2148 35.8601 21.9939C35.4673 21.7606 35.0253 21.5888 34.5343 21.4783C34.0433 21.3678 33.54 21.3126 33.0244 21.3126C32.4843 21.3126 32.0301 21.3862 31.6618 21.5335C31.3058 21.6808 31.0173 21.9018 30.7964 22.1964C30.5754 22.491 30.4035 22.8654 30.2808 23.3196C30.2071 23.5897 30.1458 23.8659 30.0967 24.1483C30.0475 24.4306 30.0107 24.7191 29.9862 25.0137C29.9616 25.3083 29.9493 25.6152 29.9493 25.9344C29.9493 26.3517 30.0169 26.6893 30.1519 26.9471C30.2992 27.1926 30.5324 27.3706 30.8516 27.4811C31.1708 27.5793 31.5881 27.6284 32.1037 27.6284Z" fill="white"/>
<path d="M56.4763 41.6595C54.3526 41.6595 52.499 41.3342 50.9154 40.6836C49.3441 40.033 48.1227 39.0386 47.2511 37.7006C46.3796 36.3625 45.9438 34.6624 45.9438 32.6001C45.9438 30.906 46.2322 29.4207 46.8092 28.144C47.3862 26.855 48.1779 25.7748 49.1845 24.9032C50.2034 24.0316 51.3819 23.381 52.7199 22.9514C54.058 22.5095 55.482 22.2885 56.9919 22.2885C58.023 22.2885 59.0235 22.3867 59.9933 22.5831C60.9631 22.7672 61.8346 23.0741 62.608 23.5038C63.3814 23.9212 63.9951 24.4736 64.4493 25.161C64.9035 25.8362 65.1306 26.6586 65.1306 27.6284C65.1306 28.4877 64.9649 29.2058 64.6335 29.7828C64.302 30.3597 63.8478 30.8324 63.2709 31.2006C62.7062 31.5566 62.0556 31.839 61.319 32.0476C60.5948 32.2563 59.8214 32.4282 58.9989 32.5632C58.4956 32.6983 57.8696 32.8272 57.1208 32.9499C56.3719 33.0604 55.6354 33.1463 54.9111 33.2077C54.1869 33.2691 53.5915 33.2998 53.125 33.2998C52.7568 33.2998 52.499 33.3489 52.3517 33.4471C52.2044 33.533 52.1307 33.6987 52.1307 33.9442C52.1307 34.1652 52.1921 34.423 52.3148 34.7176C52.4376 34.9999 52.6156 35.27 52.8488 35.5278C53.2539 35.9943 53.7327 36.3073 54.2851 36.4669C54.8498 36.6265 55.5311 36.7063 56.329 36.7063C57.1637 36.7063 57.9862 36.5896 58.7964 36.3564C59.6189 36.1109 60.4106 35.8715 61.1717 35.6383C61.9451 35.405 62.6939 35.2884 63.4182 35.2884C64.1424 35.2884 64.7194 35.4235 65.1491 35.6935C65.591 35.9636 65.8119 36.4914 65.8119 37.2771C65.8119 37.9645 65.5603 38.5783 65.057 39.1184C64.5537 39.6586 63.8662 40.1189 62.9947 40.4994C62.1354 40.88 61.141 41.1685 60.0117 41.3649C58.8946 41.5613 57.7161 41.6595 56.4763 41.6595ZM55.2978 30.5746C56.0098 30.5746 56.6973 30.4948 57.3601 30.3352C58.023 30.1756 58.5693 29.9117 58.9989 29.5434C59.4286 29.1751 59.6434 28.6841 59.6434 28.0703C59.6434 27.3215 59.3672 26.7875 58.8148 26.4684C58.2747 26.1369 57.5504 25.9712 56.642 25.9712C56.0896 25.9712 55.5495 26.0694 55.0216 26.2658C54.506 26.4499 54.0396 26.7077 53.6222 27.0392C53.2048 27.3706 52.8672 27.7512 52.6095 28.1808C52.3639 28.6105 52.2412 29.0708 52.2412 29.5618C52.2412 29.8687 52.3455 30.0958 52.5542 30.2431C52.7629 30.3782 53.0943 30.4702 53.5485 30.5193C54.0027 30.5562 54.5858 30.5746 55.2978 30.5746Z" fill="white"/>
<path d="M70.5517 40.6836C69.852 40.6836 69.2934 40.5117 68.8761 40.168C68.4587 39.812 68.1579 39.321 67.9738 38.6949C67.7897 38.0689 67.6976 37.3385 67.6976 36.5037C67.6976 36.0127 67.7099 35.4848 67.7344 34.9202C67.7712 34.3555 67.8203 33.7785 67.8817 33.1893C67.9554 32.5878 68.0474 31.9924 68.1579 31.4032C68.2684 30.8139 68.4034 30.2431 68.563 29.6907C68.7349 29.1383 68.9252 28.6166 69.1338 28.1256C69.8581 26.5911 70.742 25.4433 71.7854 24.6822C72.8411 23.9089 74.0932 23.5222 75.5417 23.5222C76.5115 23.5222 77.3094 23.737 77.9355 24.1667C78.5738 24.584 79.0894 25.1303 79.4822 25.8055C79.8873 26.4806 80.2188 27.1988 80.4766 27.9599C80.673 28.5368 80.9001 29.0401 81.1579 29.4698C81.4279 29.8994 81.7348 30.1142 82.0785 30.1142C82.4836 30.1142 82.858 29.9362 83.2018 29.5802C83.5455 29.2242 83.9076 28.7025 84.2882 28.0151C84.7546 27.1803 85.2518 26.4377 85.7797 25.7871C86.3198 25.1364 86.952 24.627 87.6762 24.2587C88.4005 23.8905 89.2721 23.7063 90.291 23.7063C91.7518 23.7063 92.918 24.0869 93.7895 24.848C94.6611 25.5968 95.2933 26.6279 95.6861 27.9414C96.0789 29.2549 96.2754 30.7464 96.2754 32.4159C96.2754 32.9438 96.2631 33.4839 96.2385 34.0363C96.214 34.5764 96.171 35.1104 96.1096 35.6383C96.0605 36.1661 95.993 36.6756 95.9071 37.1666C95.8212 37.6454 95.7229 38.0934 95.6125 38.5108C95.3547 39.2473 94.9987 39.7936 94.5445 40.1496C94.1026 40.5056 93.5133 40.6836 92.7768 40.6836C92.1016 40.6836 91.5431 40.524 91.1012 40.2048C90.6715 39.8857 90.3462 39.456 90.1252 38.9159C90.0761 38.6949 90.0393 38.4555 90.0148 38.1978C89.9902 37.9277 89.9718 37.6331 89.9595 37.3139C89.9472 36.9825 89.935 36.6387 89.9227 36.2828C89.9104 35.9145 89.8981 35.5278 89.8859 35.1227C89.8859 34.7053 89.8797 34.2634 89.8675 33.7969C89.8306 33.1586 89.7508 32.5878 89.6281 32.0845C89.5176 31.5689 89.358 31.1699 89.1493 30.8876C88.9406 30.593 88.6706 30.4457 88.3391 30.4457C87.9954 30.4457 87.6701 30.6114 87.3632 30.9428C87.0686 31.2743 86.7801 31.7039 86.4978 32.2318C86.2154 32.7596 85.9392 33.3182 85.6692 33.9074C85.1659 35.0613 84.6319 35.9083 84.0672 36.4485C83.5148 36.9763 82.7537 37.2403 81.7839 37.2403C80.8019 37.2403 80.0592 36.9579 79.5559 36.3932C79.0526 35.8163 78.672 35.0797 78.4143 34.1836C78.2301 33.4716 78.046 32.8578 77.8618 32.3423C77.6777 31.8267 77.469 31.4277 77.2358 31.1454C77.0148 30.8508 76.7325 30.7035 76.3888 30.7035C76.0819 30.7035 75.7873 30.8508 75.5049 31.1454C75.2226 31.44 74.9587 31.8758 74.7131 32.4527C74.4799 33.0665 74.2896 33.6987 74.1423 34.3493C73.995 34.9999 73.8723 35.6383 73.774 36.2643C73.6881 36.8904 73.6206 37.4735 73.5715 38.0136C73.3874 38.9957 73.0743 39.6892 72.6324 40.0943C72.2028 40.4872 71.5092 40.6836 70.5517 40.6836Z" fill="white"/>
<path d="M108.876 41.6595C106.752 41.6595 104.898 41.3342 103.315 40.6836C101.743 40.033 100.522 39.0386 99.6505 37.7006C98.7789 36.3625 98.3431 34.6624 98.3431 32.6001C98.3431 30.906 98.6316 29.4207 99.2086 28.144C99.7855 26.855 100.577 25.7748 101.584 24.9032C102.603 24.0316 103.781 23.381 105.119 22.9514C106.457 22.5095 107.881 22.2885 109.391 22.2885C110.422 22.2885 111.423 22.3867 112.393 22.5831C113.362 22.7672 114.234 23.0741 115.007 23.5038C115.781 23.9212 116.394 24.4736 116.849 25.161C117.303 25.8362 117.53 26.6586 117.53 27.6284C117.53 28.4877 117.364 29.2058 117.033 29.7828C116.701 30.3597 116.247 30.8324 115.67 31.2006C115.106 31.5566 114.455 31.839 113.718 32.0476C112.994 32.2563 112.221 32.4282 111.398 32.5632C110.895 32.6983 110.269 32.8272 109.52 32.9499C108.771 33.0604 108.035 33.1463 107.31 33.2077C106.586 33.2691 105.991 33.2998 105.524 33.2998C105.156 33.2998 104.898 33.3489 104.751 33.4471C104.604 33.533 104.53 33.6987 104.53 33.9442C104.53 34.1652 104.591 34.423 104.714 34.7176C104.837 34.9999 105.015 35.27 105.248 35.5278C105.653 35.9943 106.132 36.3073 106.684 36.4669C107.249 36.6265 107.93 36.7063 108.728 36.7063C109.563 36.7063 110.386 36.5896 111.196 36.3564C112.018 36.1109 112.81 35.8715 113.571 35.6383C114.344 35.405 115.093 35.2884 115.818 35.2884C116.542 35.2884 117.119 35.4235 117.548 35.6935C117.99 35.9636 118.211 36.4914 118.211 37.2771C118.211 37.9645 117.96 38.5783 117.456 39.1184C116.953 39.6586 116.266 40.1189 115.394 40.4994C114.535 40.88 113.54 41.1685 112.411 41.3649C111.294 41.5613 110.115 41.6595 108.876 41.6595ZM107.697 30.5746C108.409 30.5746 109.097 30.4948 109.76 30.3352C110.422 30.1756 110.969 29.9117 111.398 29.5434C111.828 29.1751 112.043 28.6841 112.043 28.0703C112.043 27.3215 111.767 26.7875 111.214 26.4684C110.674 26.1369 109.95 25.9712 109.041 25.9712C108.489 25.9712 107.949 26.0694 107.421 26.2658C106.905 26.4499 106.439 26.7077 106.022 27.0392C105.604 27.3706 105.267 27.7512 105.009 28.1808C104.763 28.6105 104.641 29.0708 104.641 29.5618C104.641 29.8687 104.745 30.0958 104.954 30.2431C105.162 30.3782 105.494 30.4702 105.948 30.5193C106.402 30.5562 106.985 30.5746 107.697 30.5746Z" fill="white"/>
<path d="M122.951 40.6836C122.251 40.6836 121.693 40.5117 121.275 40.168C120.858 39.812 120.557 39.321 120.373 38.6949C120.189 38.0689 120.097 37.3385 120.097 36.5037C120.097 36.0127 120.109 35.4848 120.134 34.9202C120.171 34.3555 120.22 33.7785 120.281 33.1893C120.355 32.5878 120.447 31.9924 120.557 31.4032C120.668 30.8139 120.803 30.2431 120.962 29.6907C121.134 29.1383 121.325 28.6166 121.533 28.1256C122.257 26.5911 123.141 25.4433 124.185 24.6822C125.24 23.9089 126.493 23.5222 127.941 23.5222C128.911 23.5222 129.709 23.737 130.335 24.1667C130.973 24.584 131.489 25.1303 131.882 25.8055C132.287 26.4806 132.618 27.1988 132.876 27.9599C133.072 28.5368 133.299 29.0401 133.557 29.4698C133.827 29.8994 134.134 30.1142 134.478 30.1142C134.883 30.1142 135.257 29.9362 135.601 29.5802C135.945 29.2242 136.307 28.7025 136.688 28.0151C137.154 27.1803 137.651 26.4377 138.179 25.7871C138.719 25.1364 139.351 24.627 140.076 24.2587C140.8 23.8905 141.671 23.7063 142.69 23.7063C144.151 23.7063 145.317 24.0869 146.189 24.848C147.06 25.5968 147.693 26.6279 148.085 27.9414C148.478 29.2549 148.675 30.7464 148.675 32.4159C148.675 32.9438 148.662 33.4839 148.638 34.0363C148.613 34.5764 148.57 35.1104 148.509 35.6383C148.46 36.1661 148.392 36.6756 148.306 37.1666C148.221 37.6454 148.122 38.0934 148.012 38.5108C147.754 39.2473 147.398 39.7936 146.944 40.1496C146.502 40.5056 145.913 40.6836 145.176 40.6836C144.501 40.6836 143.942 40.524 143.501 40.2048C143.071 39.8857 142.746 39.456 142.525 38.9159C142.475 38.6949 142.439 38.4555 142.414 38.1978C142.39 37.9277 142.371 37.6331 142.359 37.3139C142.347 36.9825 142.334 36.6387 142.322 36.2828C142.31 35.9145 142.297 35.5278 142.285 35.1227C142.285 34.7053 142.279 34.2634 142.267 33.7969C142.23 33.1586 142.15 32.5878 142.027 32.0845C141.917 31.5689 141.757 31.1699 141.549 30.8876C141.34 30.593 141.07 30.4457 140.738 30.4457C140.395 30.4457 140.069 30.6114 139.763 30.9428C139.468 31.2743 139.179 31.7039 138.897 32.2318C138.615 32.7596 138.339 33.3182 138.069 33.9074C137.565 35.0613 137.031 35.9083 136.467 36.4485C135.914 36.9763 135.153 37.2403 134.183 37.2403C133.201 37.2403 132.459 36.9579 131.955 36.3932C131.452 35.8163 131.071 35.0797 130.814 34.1836C130.629 33.4716 130.445 32.8578 130.261 32.3423C130.077 31.8267 129.868 31.4277 129.635 31.1454C129.414 30.8508 129.132 30.7035 128.788 30.7035C128.481 30.7035 128.187 30.8508 127.904 31.1454C127.622 31.44 127.358 31.8758 127.112 32.4527C126.879 33.0665 126.689 33.6987 126.542 34.3493C126.394 34.9999 126.272 35.6383 126.173 36.2643C126.087 36.8904 126.02 37.4735 125.971 38.0136C125.787 38.9957 125.474 39.6892 125.032 40.0943C124.602 40.4872 123.909 40.6836 122.951 40.6836Z" fill="white"/>
<path d="M161.521 40.8677C159.262 40.8677 157.372 40.5363 155.849 39.8734C154.339 39.2105 153.198 38.1916 152.424 36.8167C151.651 35.4296 151.264 33.6558 151.264 31.4952C151.264 30.5255 151.301 29.5618 151.375 28.6043C151.461 27.6345 151.577 26.6893 151.725 25.7686C151.872 24.8357 152.05 23.9518 152.259 23.1171C152.48 22.2701 152.719 21.4967 152.977 20.797C153.235 20.0973 153.511 19.4835 153.805 18.9556C154.26 18.2682 154.794 17.7342 155.407 17.3537C156.033 16.9609 156.727 16.7644 157.488 16.7644C158.372 16.7644 159.047 16.9977 159.514 17.4642C159.992 17.9184 160.232 18.5383 160.232 19.3239C160.232 19.6063 160.219 19.907 160.195 20.2262C160.17 20.5331 160.14 20.8584 160.103 21.2021C160.078 21.5458 160.048 21.8895 160.011 22.2333C159.986 22.5647 159.962 22.89 159.937 23.2092C159.913 23.5161 159.9 23.8107 159.9 24.093C159.9 24.7559 159.919 25.2408 159.956 25.5477C159.992 25.8546 160.115 26.008 160.324 26.008C160.533 26.008 160.809 25.9466 161.152 25.8239C161.496 25.6889 161.877 25.5231 162.294 25.3267C162.65 25.1426 163.092 24.983 163.62 24.848C164.16 24.7007 164.78 24.627 165.48 24.627C167.075 24.627 168.438 24.9523 169.567 25.6029C170.697 26.2413 171.556 27.1435 172.145 28.3097C172.747 29.4636 173.048 30.8139 173.048 32.3607C173.048 33.8706 172.747 35.1657 172.145 36.2459C171.556 37.3139 170.727 38.1916 169.659 38.8791C168.604 39.5542 167.376 40.0514 165.977 40.3705C164.59 40.702 163.104 40.8677 161.521 40.8677ZM162.22 36.8352C162.687 36.8352 163.153 36.7554 163.62 36.5958C164.099 36.4362 164.541 36.1968 164.946 35.8777C165.363 35.5585 165.694 35.1595 165.94 34.6808C166.198 34.202 166.327 33.6312 166.327 32.9683C166.327 32.109 166.161 31.3725 165.829 30.7587C165.51 30.1326 165.05 29.6539 164.448 29.3224C163.847 28.991 163.129 28.8253 162.294 28.8253C161.545 28.8253 160.882 28.9787 160.305 29.2856C159.741 29.5802 159.293 30.0037 158.961 30.5562C158.642 31.0963 158.482 31.7346 158.482 32.4712C158.482 33.355 158.605 34.1222 158.851 34.7728C159.096 35.4235 159.489 35.9329 160.029 36.3012C160.582 36.6572 161.312 36.8352 162.22 36.8352Z" fill="white"/>
<path d="M186.054 41.6595C183.93 41.6595 182.077 41.3342 180.493 40.6836C178.922 40.033 177.701 39.0386 176.829 37.7006C175.957 36.3625 175.522 34.6624 175.522 32.6001C175.522 30.906 175.81 29.4207 176.387 28.144C176.964 26.855 177.756 25.7748 178.762 24.9032C179.781 24.0316 180.96 23.381 182.298 22.9514C183.636 22.5095 185.06 22.2885 186.57 22.2885C187.601 22.2885 188.601 22.3867 189.571 22.5831C190.541 22.7672 191.412 23.0741 192.186 23.5038C192.959 23.9212 193.573 24.4736 194.027 25.161C194.481 25.8362 194.708 26.6586 194.708 27.6284C194.708 28.4877 194.543 29.2058 194.211 29.7828C193.88 30.3597 193.426 30.8324 192.849 31.2006C192.284 31.5566 191.633 31.839 190.897 32.0476C190.173 32.2563 189.399 32.4282 188.577 32.5632C188.073 32.6983 187.447 32.8272 186.699 32.9499C185.95 33.0604 185.213 33.1463 184.489 33.2077C183.765 33.2691 183.169 33.2998 182.703 33.2998C182.335 33.2998 182.077 33.3489 181.929 33.4471C181.782 33.533 181.709 33.6987 181.709 33.9442C181.709 34.1652 181.77 34.423 181.893 34.7176C182.015 34.9999 182.193 35.27 182.427 35.5278C182.832 35.9943 183.31 36.3073 183.863 36.4669C184.428 36.6265 185.109 36.7063 185.907 36.7063C186.742 36.7063 187.564 36.5896 188.374 36.3564C189.197 36.1109 189.988 35.8715 190.75 35.6383C191.523 35.405 192.272 35.2884 192.996 35.2884C193.72 35.2884 194.297 35.4235 194.727 35.6935C195.169 35.9636 195.39 36.4914 195.39 37.2771C195.39 37.9645 195.138 38.5783 194.635 39.1184C194.131 39.6586 193.444 40.1189 192.572 40.4994C191.713 40.88 190.719 41.1685 189.59 41.3649C188.472 41.5613 187.294 41.6595 186.054 41.6595ZM184.876 30.5746C185.588 30.5746 186.275 30.4948 186.938 30.3352C187.601 30.1756 188.147 29.9117 188.577 29.5434C189.006 29.1751 189.221 28.6841 189.221 28.0703C189.221 27.3215 188.945 26.7875 188.393 26.4684C187.852 26.1369 187.128 25.9712 186.22 25.9712C185.667 25.9712 185.127 26.0694 184.599 26.2658C184.084 26.4499 183.617 26.7077 183.2 27.0392C182.783 27.3706 182.445 27.7512 182.187 28.1808C181.942 28.6105 181.819 29.0708 181.819 29.5618C181.819 29.8687 181.923 30.0958 182.132 30.2431C182.341 30.3782 182.672 30.4702 183.126 30.5193C183.581 30.5562 184.164 30.5746 184.876 30.5746Z" fill="white"/>
<path d="M203.02 40.8309C202.505 40.8309 202.045 40.7572 201.639 40.6099C201.234 40.4626 200.878 40.2539 200.571 39.9839C200.265 39.7015 199.988 39.3762 199.743 39.008C199.46 38.5415 199.209 38.0136 198.988 37.4244C198.779 36.8352 198.601 36.2152 198.454 35.5646C198.307 34.9017 198.19 34.2389 198.104 33.576C198.03 32.9008 197.994 32.2502 197.994 31.6241C197.994 29.5864 198.417 27.8555 199.264 26.4315C200.111 25.0076 201.302 23.9212 202.836 23.1723C204.383 22.4235 206.2 22.0491 208.287 22.0491C209.244 22.0491 210.171 22.1289 211.067 22.2885C211.976 22.4358 212.786 22.669 213.498 22.9882C214.222 23.2951 214.799 23.6818 215.229 24.1483C215.658 24.6147 215.873 25.1671 215.873 25.8055C215.873 26.3947 215.75 26.8612 215.505 27.2049C215.272 27.5363 214.965 27.7696 214.584 27.9046C214.204 28.0396 213.805 28.1072 213.387 28.1072C212.712 28.1072 212.049 28.0212 211.399 27.8494C210.76 27.6652 209.981 27.5732 209.06 27.5732C207.869 27.5732 206.955 27.9292 206.316 28.6411C205.69 29.3531 205.377 30.3659 205.377 31.6794C205.377 32.1704 205.396 32.6553 205.433 33.134C205.482 33.6005 205.543 34.0486 205.617 34.4782C205.69 34.9079 205.758 35.3191 205.819 35.7119C205.893 36.1048 205.954 36.4669 206.003 36.7983C206.053 37.1175 206.077 37.3998 206.077 37.6454C206.077 38.7256 205.832 39.5297 205.341 40.0575C204.849 40.5731 204.076 40.8309 203.02 40.8309Z" fill="white"/>
<path fill-rule="evenodd" clip-rule="evenodd" d="M2.1671 0.774662L2.86517 1.85821C4.96283 5.11423 7.16222 10.7001 8.0305 17.936C8.57547 22.4776 8.39462 26.7223 8.20695 30.075C8.18978 30.3818 8.17265 30.6797 8.15602 30.9688C8.08071 32.278 8.01577 33.4069 8.00505 34.3604C7.99139 35.5746 8.0754 36.268 8.20869 36.6012L8.22393 36.6393L8.23672 36.6783C8.32528 36.9484 8.61823 37.3651 9.22448 37.7921C9.80974 38.2043 10.5894 38.5542 11.4628 38.7417C13.1903 39.1128 15.1127 38.8249 16.5843 37.3856C16.856 37.038 17.0742 36.4328 17.2084 35.3747C17.3262 34.4458 17.3621 33.3479 17.4052 32.0296C17.4124 31.8101 17.4198 31.5845 17.4278 31.3525C17.5378 28.1615 17.7589 24.0767 19.331 19.6074L19.3476 19.5604L19.3677 19.5148C21.1179 15.5477 23.9339 13.5151 26.7694 12.6473C29.549 11.7966 32.2928 12.0775 34.0181 12.6136L35.249 12.996L34.4842 15.4578L33.2533 15.0754C31.9423 14.6681 29.7335 14.4361 27.5238 15.1124C25.3799 15.7685 23.1802 17.2918 21.7462 20.5103C20.3264 24.5708 20.1121 28.3078 20.0042 31.4413C19.9966 31.6607 19.9895 31.8789 19.9825 32.0952C19.9403 33.4004 19.9001 34.6397 19.7658 35.699C19.6111 36.9189 19.3077 38.1525 18.5272 39.0821L18.4911 39.125L18.4515 39.1647C16.2143 41.4018 13.306 41.7743 10.9215 41.2621C9.73009 41.0063 8.6257 40.5234 7.74006 39.8997C6.88677 39.2987 6.13076 38.4896 5.80015 37.5204C5.46783 36.6598 5.41414 35.5031 5.42732 34.3314C5.43878 33.3124 5.50817 32.1077 5.58373 30.7962C5.60007 30.5125 5.6167 30.2238 5.63309 29.9309C5.81964 26.5982 5.98721 22.5452 5.47097 18.2431C4.64133 11.3292 2.55074 6.13008 0.698069 3.25435L0 2.1708L2.1671 0.774662Z" fill="white"/>
<path d="M7.82684 0.231314L3.89075 1.54542L4.69931 2.83624C6.39506 5.5434 7.67736 8.48845 8.50388 11.5741C9.05687 13.6386 9.40237 15.7531 9.53523 17.8863L9.81582 22.3913L9.56636 30.1502V34.4303C9.56636 35.3278 10.0373 36.1595 10.8069 36.6212C11.2039 36.8595 11.6583 36.9854 12.1214 36.9854H12.8637C13.7308 36.9854 14.554 36.6036 15.1141 35.9416C15.5299 35.4502 15.7734 34.8362 15.8075 34.1934L16.1893 26.9847C16.2467 25.9022 16.389 24.8259 16.6149 23.7656L17.2271 20.8931C17.8188 18.1167 19.3454 15.6274 21.5518 13.8412C23.2666 12.4531 25.3208 11.5476 27.5024 11.2184L27.9508 11.1507C29.8095 10.8702 31.7032 10.9207 33.5443 11.2997L33.6344 11.3183L30.268 7.52513C28.0047 7.90912 25.8472 8.7636 23.9347 10.0334L21.9994 11.3183L23.2351 10.3511C25.2209 8.79701 27.5117 7.67858 29.9585 7.06869L26.0816 3.8379C23.5851 5.82464 21.4627 8.24055 19.8142 10.9722L19.1976 11.9939L20.0614 10.2813C21.3421 7.74184 23.0855 5.46367 25.2019 3.56371C24.2127 2.62238 23.087 1.83593 21.8628 1.23098L21.5302 1.0666C18.401 6.61896 16.1847 12.6383 14.9663 18.8941L14.8528 19.4767C15.6586 13.6694 17.2365 7.9957 19.5447 2.60619L20.3176 0.801322C18.742 0.421841 17.1404 0.159887 15.526 0.0176217L15.326 0C15.3628 4.87392 15.0041 9.74279 14.2535 14.5587L13.0327 22.3913L14.0151 14.1206C14.572 9.43283 14.6244 4.6989 14.1715 0L9.33544 0.231314L10.9258 6.43868C11.814 11.3284 12.0926 16.3094 11.7552 21.2677L11.4137 26.2875L11.5449 16.9321C11.5887 13.8127 11.2563 10.6993 10.5551 7.6594C10.3676 6.84671 10.1199 6.04909 9.81408 5.27315L7.82684 0.231314Z" fill="white"/>
</svg>
