<svg width="1173" height="227" viewBox="0 0 1173 227" fill="none" xmlns="http://www.w3.org/2000/svg">
<path d="M148.178 223.009C143.178 223.009 138.944 221.776 135.478 219.309C132.078 216.842 129.478 213.242 127.678 208.509C127.011 206.642 126.411 204.342 125.878 201.609C125.411 198.876 124.978 195.876 124.578 192.609C124.244 189.276 123.944 185.876 123.678 182.409C123.478 178.942 123.344 175.542 123.278 172.209C123.211 168.876 123.178 165.842 123.178 163.109C123.178 152.842 123.978 143.876 125.578 136.209C127.244 128.542 129.644 122.076 132.778 116.809C135.978 111.476 139.944 107.209 144.678 104.009C149.411 100.742 154.911 98.3758 161.178 96.9091C167.444 95.4425 174.411 94.7091 182.078 94.7091C189.144 94.7091 195.944 95.5091 202.478 97.1091C209.011 98.7091 214.844 101.109 219.978 104.309C225.178 107.509 229.278 111.442 232.278 116.109C235.344 120.776 236.878 126.176 236.878 132.309C236.878 137.442 235.911 141.742 233.978 145.209C232.111 148.609 229.611 151.376 226.478 153.509C223.411 155.642 220.078 157.309 216.478 158.509C212.878 159.642 209.344 160.542 205.878 161.209C204.011 161.542 202.578 162.009 201.578 162.609C200.578 163.142 200.078 163.842 200.078 164.709C200.078 165.376 200.711 166.342 201.978 167.609C203.244 168.809 204.844 170.276 206.778 172.009C208.778 173.676 210.844 175.509 212.978 177.509C215.178 179.442 217.211 181.442 219.078 183.509C220.478 185.042 222.044 186.776 223.778 188.709C225.578 190.576 227.344 192.509 229.078 194.509C230.811 196.509 232.378 198.442 233.778 200.309C235.244 202.109 236.411 203.742 237.278 205.209C238.144 206.609 238.578 207.642 238.578 208.309C238.578 211.109 237.711 213.476 235.978 215.409C234.244 217.342 231.978 218.776 229.178 219.709C226.378 220.709 223.411 221.209 220.278 221.209C217.544 221.209 214.778 220.642 211.978 219.509C209.178 218.442 206.411 216.909 203.678 214.909C200.944 212.842 198.244 210.409 195.578 207.609C192.978 204.809 190.444 201.709 187.978 198.309C184.711 194.042 181.678 190.309 178.878 187.109C176.078 183.842 173.678 181.276 171.678 179.409C169.744 177.476 168.344 176.509 167.478 176.509C166.944 176.509 166.511 176.742 166.178 177.209C165.911 177.609 165.711 178.376 165.578 179.509C165.444 180.576 165.344 181.976 165.278 183.709C165.278 185.442 165.278 187.609 165.278 190.209C165.278 191.276 165.278 192.576 165.278 194.109C165.344 195.642 165.378 197.276 165.378 199.009C165.378 200.676 165.344 202.342 165.278 204.009C165.278 205.609 165.244 207.076 165.178 208.409C165.111 209.742 165.011 210.776 164.878 211.509C164.011 215.842 162.011 218.842 158.878 220.509C155.744 222.176 152.178 223.009 148.178 223.009ZM174.778 150.509C176.511 150.509 178.578 150.342 180.978 150.009C183.378 149.609 185.811 148.976 188.278 148.109C190.811 147.176 193.144 146.009 195.278 144.609C197.411 143.142 199.111 141.376 200.378 139.309C201.711 137.176 202.378 134.709 202.378 131.909C202.378 129.176 201.711 126.809 200.378 124.809C199.111 122.742 197.378 121.109 195.178 119.909C193.044 118.642 190.644 117.709 187.978 117.109C185.311 116.509 182.578 116.209 179.778 116.209C176.844 116.209 174.378 116.609 172.378 117.409C170.444 118.209 168.878 119.409 167.678 121.009C166.478 122.609 165.544 124.642 164.878 127.109C164.478 128.576 164.144 130.076 163.878 131.609C163.611 133.142 163.411 134.709 163.278 136.309C163.144 137.909 163.078 139.576 163.078 141.309C163.078 143.576 163.444 145.409 164.178 146.809C164.978 148.142 166.244 149.109 167.978 149.709C169.711 150.242 171.978 150.509 174.778 150.509Z" fill="#FFFFFF"/>
<path d="M307.14 226.709C295.607 226.709 285.54 224.942 276.94 221.409C268.407 217.876 261.773 212.476 257.04 205.209C252.307 197.942 249.94 188.709 249.94 177.509C249.94 168.309 251.507 160.242 254.64 153.309C257.773 146.309 262.073 140.442 267.54 135.709C273.073 130.976 279.473 127.442 286.74 125.109C294.007 122.709 301.74 121.509 309.94 121.509C315.54 121.509 320.973 122.042 326.24 123.109C331.507 124.109 336.24 125.776 340.44 128.109C344.64 130.376 347.973 133.376 350.44 137.109C352.907 140.776 354.14 145.242 354.14 150.509C354.14 155.176 353.24 159.076 351.44 162.209C349.64 165.342 347.173 167.909 344.04 169.909C340.973 171.842 337.44 173.376 333.44 174.509C329.507 175.642 325.307 176.576 320.84 177.309C318.107 178.042 314.707 178.742 310.64 179.409C306.573 180.009 302.573 180.476 298.64 180.809C294.707 181.142 291.473 181.309 288.94 181.309C286.94 181.309 285.54 181.576 284.74 182.109C283.94 182.576 283.54 183.476 283.54 184.809C283.54 186.009 283.873 187.409 284.54 189.009C285.207 190.542 286.173 192.009 287.44 193.409C289.64 195.942 292.24 197.642 295.24 198.509C298.307 199.376 302.007 199.809 306.34 199.809C310.873 199.809 315.34 199.176 319.74 197.909C324.207 196.576 328.507 195.276 332.64 194.009C336.84 192.742 340.907 192.109 344.84 192.109C348.773 192.109 351.907 192.842 354.24 194.309C356.64 195.776 357.84 198.642 357.84 202.909C357.84 206.642 356.473 209.976 353.74 212.909C351.007 215.842 347.273 218.342 342.54 220.409C337.873 222.476 332.473 224.042 326.34 225.109C320.273 226.176 313.873 226.709 307.14 226.709ZM300.74 166.509C304.607 166.509 308.34 166.076 311.94 165.209C315.54 164.342 318.507 162.909 320.84 160.909C323.173 158.909 324.34 156.242 324.34 152.909C324.34 148.842 322.84 145.942 319.84 144.209C316.907 142.409 312.973 141.509 308.04 141.509C305.04 141.509 302.107 142.042 299.24 143.109C296.44 144.109 293.907 145.509 291.64 147.309C289.373 149.109 287.54 151.176 286.14 153.509C284.807 155.842 284.14 158.342 284.14 161.009C284.14 162.676 284.707 163.909 285.84 164.709C286.973 165.442 288.773 165.942 291.24 166.209C293.707 166.409 296.873 166.509 300.74 166.509Z" fill="#FFFFFF"/>
<path d="M383.581 221.409C379.781 221.409 376.747 220.476 374.481 218.609C372.214 216.676 370.581 214.009 369.581 210.609C368.581 207.209 368.081 203.242 368.081 198.709C368.081 196.042 368.147 193.176 368.281 190.109C368.481 187.042 368.747 183.909 369.081 180.709C369.481 177.442 369.981 174.209 370.581 171.009C371.181 167.809 371.914 164.709 372.781 161.709C373.714 158.709 374.747 155.876 375.881 153.209C379.814 144.876 384.614 138.642 390.281 134.509C396.014 130.309 402.814 128.209 410.681 128.209C415.947 128.209 420.281 129.376 423.681 131.709C427.147 133.976 429.947 136.942 432.081 140.609C434.281 144.276 436.081 148.176 437.481 152.309C438.547 155.442 439.781 158.176 441.181 160.509C442.647 162.842 444.314 164.009 446.181 164.009C448.381 164.009 450.414 163.042 452.281 161.109C454.147 159.176 456.114 156.342 458.181 152.609C460.714 148.076 463.414 144.042 466.281 140.509C469.214 136.976 472.647 134.209 476.581 132.209C480.514 130.209 485.247 129.209 490.781 129.209C498.714 129.209 505.047 131.276 509.781 135.409C514.514 139.476 517.947 145.076 520.081 152.209C522.214 159.342 523.281 167.442 523.281 176.509C523.281 179.376 523.214 182.309 523.081 185.309C522.947 188.242 522.714 191.142 522.381 194.009C522.114 196.876 521.747 199.642 521.281 202.309C520.814 204.909 520.281 207.342 519.681 209.609C518.281 213.609 516.347 216.576 513.881 218.509C511.481 220.442 508.281 221.409 504.281 221.409C500.614 221.409 497.581 220.542 495.181 218.809C492.847 217.076 491.081 214.742 489.881 211.809C489.614 210.609 489.414 209.309 489.281 207.909C489.147 206.442 489.047 204.842 488.981 203.109C488.914 201.309 488.847 199.442 488.781 197.509C488.714 195.509 488.647 193.409 488.581 191.209C488.581 188.942 488.547 186.542 488.481 184.009C488.281 180.542 487.847 177.442 487.181 174.709C486.581 171.909 485.714 169.742 484.581 168.209C483.447 166.609 481.981 165.809 480.181 165.809C478.314 165.809 476.547 166.709 474.881 168.509C473.281 170.309 471.714 172.642 470.181 175.509C468.647 178.376 467.147 181.409 465.681 184.609C462.947 190.876 460.047 195.476 456.981 198.409C453.981 201.276 449.847 202.709 444.581 202.709C439.247 202.709 435.214 201.176 432.481 198.109C429.747 194.976 427.681 190.976 426.281 186.109C425.281 182.242 424.281 178.909 423.281 176.109C422.281 173.309 421.147 171.142 419.881 169.609C418.681 168.009 417.147 167.209 415.281 167.209C413.614 167.209 412.014 168.009 410.481 169.609C408.947 171.209 407.514 173.576 406.181 176.709C404.914 180.042 403.881 183.476 403.081 187.009C402.281 190.542 401.614 194.009 401.081 197.409C400.614 200.809 400.247 203.976 399.981 206.909C398.981 212.242 397.281 216.009 394.881 218.209C392.547 220.342 388.781 221.409 383.581 221.409Z" fill="#FFFFFF"/>
<path d="M591.71 226.709C580.177 226.709 570.11 224.942 561.51 221.409C552.977 217.876 546.344 212.476 541.61 205.209C536.877 197.942 534.51 188.709 534.51 177.509C534.51 168.309 536.077 160.242 539.21 153.309C542.344 146.309 546.644 140.442 552.11 135.709C557.644 130.976 564.044 127.442 571.31 125.109C578.577 122.709 586.31 121.509 594.51 121.509C600.11 121.509 605.544 122.042 610.81 123.109C616.077 124.109 620.81 125.776 625.01 128.109C629.21 130.376 632.544 133.376 635.01 137.109C637.477 140.776 638.71 145.242 638.71 150.509C638.71 155.176 637.81 159.076 636.01 162.209C634.21 165.342 631.744 167.909 628.61 169.909C625.544 171.842 622.01 173.376 618.01 174.509C614.077 175.642 609.877 176.576 605.41 177.309C602.677 178.042 599.277 178.742 595.21 179.409C591.144 180.009 587.144 180.476 583.21 180.809C579.277 181.142 576.044 181.309 573.51 181.309C571.51 181.309 570.11 181.576 569.31 182.109C568.51 182.576 568.11 183.476 568.11 184.809C568.11 186.009 568.444 187.409 569.11 189.009C569.777 190.542 570.744 192.009 572.01 193.409C574.21 195.942 576.81 197.642 579.81 198.509C582.877 199.376 586.577 199.809 590.91 199.809C595.444 199.809 599.91 199.176 604.31 197.909C608.777 196.576 613.077 195.276 617.21 194.009C621.41 192.742 625.477 192.109 629.41 192.109C633.344 192.109 636.477 192.842 638.81 194.309C641.21 195.776 642.41 198.642 642.41 202.909C642.41 206.642 641.044 209.976 638.31 212.909C635.577 215.842 631.844 218.342 627.11 220.409C622.444 222.476 617.044 224.042 610.91 225.109C604.844 226.176 598.444 226.709 591.71 226.709ZM585.31 166.509C589.177 166.509 592.91 166.076 596.51 165.209C600.11 164.342 603.077 162.909 605.41 160.909C607.744 158.909 608.91 156.242 608.91 152.909C608.91 148.842 607.41 145.942 604.41 144.209C601.477 142.409 597.544 141.509 592.61 141.509C589.61 141.509 586.677 142.042 583.81 143.109C581.01 144.109 578.477 145.509 576.21 147.309C573.944 149.109 572.11 151.176 570.71 153.509C569.377 155.842 568.71 158.342 568.71 161.009C568.71 162.676 569.277 163.909 570.41 164.709C571.544 165.442 573.344 165.942 575.81 166.209C578.277 166.409 581.444 166.509 585.31 166.509Z" fill="#FFFFFF"/>
<path d="M668.151 221.409C664.351 221.409 661.318 220.476 659.051 218.609C656.784 216.676 655.151 214.009 654.151 210.609C653.151 207.209 652.651 203.242 652.651 198.709C652.651 196.042 652.718 193.176 652.851 190.109C653.051 187.042 653.318 183.909 653.651 180.709C654.051 177.442 654.551 174.209 655.151 171.009C655.751 167.809 656.484 164.709 657.351 161.709C658.284 158.709 659.318 155.876 660.451 153.209C664.384 144.876 669.184 138.642 674.851 134.509C680.584 130.309 687.384 128.209 695.251 128.209C700.518 128.209 704.851 129.376 708.251 131.709C711.718 133.976 714.518 136.942 716.651 140.609C718.851 144.276 720.651 148.176 722.051 152.309C723.118 155.442 724.351 158.176 725.751 160.509C727.218 162.842 728.884 164.009 730.751 164.009C732.951 164.009 734.984 163.042 736.851 161.109C738.718 159.176 740.684 156.342 742.751 152.609C745.284 148.076 747.984 144.042 750.851 140.509C753.784 136.976 757.218 134.209 761.151 132.209C765.084 130.209 769.818 129.209 775.351 129.209C783.284 129.209 789.618 131.276 794.351 135.409C799.084 139.476 802.518 145.076 804.651 152.209C806.784 159.342 807.851 167.442 807.851 176.509C807.851 179.376 807.784 182.309 807.651 185.309C807.518 188.242 807.284 191.142 806.951 194.009C806.684 196.876 806.318 199.642 805.851 202.309C805.384 204.909 804.851 207.342 804.251 209.609C802.851 213.609 800.918 216.576 798.451 218.509C796.051 220.442 792.851 221.409 788.851 221.409C785.184 221.409 782.151 220.542 779.751 218.809C777.418 217.076 775.651 214.742 774.451 211.809C774.184 210.609 773.984 209.309 773.851 207.909C773.718 206.442 773.618 204.842 773.551 203.109C773.484 201.309 773.418 199.442 773.351 197.509C773.284 195.509 773.218 193.409 773.151 191.209C773.151 188.942 773.118 186.542 773.051 184.009C772.851 180.542 772.418 177.442 771.751 174.709C771.151 171.909 770.284 169.742 769.151 168.209C768.018 166.609 766.551 165.809 764.751 165.809C762.884 165.809 761.118 166.709 759.451 168.509C757.851 170.309 756.284 172.642 754.751 175.509C753.218 178.376 751.718 181.409 750.251 184.609C747.518 190.876 744.618 195.476 741.551 198.409C738.551 201.276 734.418 202.709 729.151 202.709C723.818 202.709 719.784 201.176 717.051 198.109C714.318 194.976 712.251 190.976 710.851 186.109C709.851 182.242 708.851 178.909 707.851 176.109C706.851 173.309 705.718 171.142 704.451 169.609C703.251 168.009 701.718 167.209 699.851 167.209C698.184 167.209 696.584 168.009 695.051 169.609C693.518 171.209 692.084 173.576 690.751 176.709C689.484 180.042 688.451 183.476 687.651 187.009C686.851 190.542 686.184 194.009 685.651 197.409C685.184 200.809 684.818 203.976 684.551 206.909C683.551 212.242 681.851 216.009 679.451 218.209C677.118 220.342 673.351 221.409 668.151 221.409Z" fill="#FFFFFF"/>
<path d="M877.615 222.409C865.348 222.409 855.082 220.609 846.815 217.009C838.615 213.409 832.415 207.876 828.215 200.409C824.015 192.876 821.915 183.242 821.915 171.509C821.915 166.242 822.115 161.009 822.515 155.809C822.982 150.542 823.615 145.409 824.415 140.409C825.215 135.342 826.182 130.542 827.315 126.009C828.515 121.409 829.815 117.209 831.215 113.409C832.615 109.609 834.115 106.276 835.715 103.409C838.182 99.6758 841.082 96.7758 844.415 94.7091C847.815 92.5758 851.582 91.5091 855.715 91.5091C860.515 91.5091 864.182 92.7758 866.715 95.3091C869.315 97.7758 870.615 101.142 870.615 105.409C870.615 106.942 870.548 108.576 870.415 110.309C870.282 111.976 870.115 113.742 869.915 115.609C869.782 117.476 869.615 119.342 869.415 121.209C869.282 123.009 869.148 124.776 869.015 126.509C868.882 128.176 868.815 129.776 868.815 131.309C868.815 134.909 868.915 137.542 869.115 139.209C869.315 140.876 869.982 141.709 871.115 141.709C872.248 141.709 873.748 141.376 875.615 140.709C877.482 139.976 879.548 139.076 881.815 138.009C883.748 137.009 886.148 136.142 889.015 135.409C891.948 134.609 895.315 134.209 899.115 134.209C907.782 134.209 915.182 135.976 921.315 139.509C927.448 142.976 932.115 147.876 935.315 154.209C938.582 160.476 940.215 167.809 940.215 176.209C940.215 184.409 938.582 191.442 935.315 197.309C932.115 203.109 927.615 207.876 921.815 211.609C916.082 215.276 909.415 217.976 901.815 219.709C894.282 221.509 886.215 222.409 877.615 222.409ZM881.415 200.509C883.948 200.509 886.482 200.076 889.015 199.209C891.615 198.342 894.015 197.042 896.215 195.309C898.482 193.576 900.282 191.409 901.615 188.809C903.015 186.209 903.715 183.109 903.715 179.509C903.715 174.842 902.815 170.842 901.015 167.509C899.282 164.109 896.782 161.509 893.515 159.709C890.248 157.909 886.348 157.009 881.815 157.009C877.748 157.009 874.148 157.842 871.015 159.509C867.948 161.109 865.515 163.409 863.715 166.409C861.982 169.342 861.115 172.809 861.115 176.809C861.115 181.609 861.782 185.776 863.115 189.309C864.448 192.842 866.582 195.609 869.515 197.609C872.515 199.542 876.482 200.509 881.415 200.509Z" fill="#FFFFFF"/>
<path d="M1010.85 226.709C999.318 226.709 989.251 224.942 980.651 221.409C972.118 217.876 965.484 212.476 960.751 205.209C956.018 197.942 953.651 188.709 953.651 177.509C953.651 168.309 955.218 160.242 958.351 153.309C961.484 146.309 965.784 140.442 971.251 135.709C976.784 130.976 983.184 127.442 990.451 125.109C997.718 122.709 1005.45 121.509 1013.65 121.509C1019.25 121.509 1024.68 122.042 1029.95 123.109C1035.22 124.109 1039.95 125.776 1044.15 128.109C1048.35 130.376 1051.68 133.376 1054.15 137.109C1056.62 140.776 1057.85 145.242 1057.85 150.509C1057.85 155.176 1056.95 159.076 1055.15 162.209C1053.35 165.342 1050.88 167.909 1047.75 169.909C1044.68 171.842 1041.15 173.376 1037.15 174.509C1033.22 175.642 1029.02 176.576 1024.55 177.309C1021.82 178.042 1018.42 178.742 1014.35 179.409C1010.28 180.009 1006.28 180.476 1002.35 180.809C998.418 181.142 995.184 181.309 992.651 181.309C990.651 181.309 989.251 181.576 988.451 182.109C987.651 182.576 987.251 183.476 987.251 184.809C987.251 186.009 987.584 187.409 988.251 189.009C988.918 190.542 989.884 192.009 991.151 193.409C993.351 195.942 995.951 197.642 998.951 198.509C1002.02 199.376 1005.72 199.809 1010.05 199.809C1014.58 199.809 1019.05 199.176 1023.45 197.909C1027.92 196.576 1032.22 195.276 1036.35 194.009C1040.55 192.742 1044.62 192.109 1048.55 192.109C1052.48 192.109 1055.62 192.842 1057.95 194.309C1060.35 195.776 1061.55 198.642 1061.55 202.909C1061.55 206.642 1060.18 209.976 1057.45 212.909C1054.72 215.842 1050.98 218.342 1046.25 220.409C1041.58 222.476 1036.18 224.042 1030.05 225.109C1023.98 226.176 1017.58 226.709 1010.85 226.709ZM1004.45 166.509C1008.32 166.509 1012.05 166.076 1015.65 165.209C1019.25 164.342 1022.22 162.909 1024.55 160.909C1026.88 158.909 1028.05 156.242 1028.05 152.909C1028.05 148.842 1026.55 145.942 1023.55 144.209C1020.62 142.409 1016.68 141.509 1011.75 141.509C1008.75 141.509 1005.82 142.042 1002.95 143.109C1000.15 144.109 997.618 145.509 995.351 147.309C993.084 149.109 991.251 151.176 989.851 153.509C988.518 155.842 987.851 158.342 987.851 161.009C987.851 162.676 988.418 163.909 989.551 164.709C990.684 165.442 992.484 165.942 994.951 166.209C997.418 166.409 1000.58 166.509 1004.45 166.509Z" fill="#FFFFFF"/>
<path d="M1102.99 222.209C1100.19 222.209 1097.69 221.809 1095.49 221.009C1093.29 220.209 1091.36 219.076 1089.69 217.609C1088.02 216.076 1086.52 214.309 1085.19 212.309C1083.66 209.776 1082.29 206.909 1081.09 203.709C1079.96 200.509 1078.99 197.142 1078.19 193.609C1077.39 190.009 1076.76 186.409 1076.29 182.809C1075.89 179.142 1075.69 175.609 1075.69 172.209C1075.69 161.142 1077.99 151.742 1082.59 144.009C1087.19 136.276 1093.66 130.376 1101.99 126.309C1110.39 122.242 1120.26 120.209 1131.59 120.209C1136.79 120.209 1141.82 120.642 1146.69 121.509C1151.62 122.309 1156.02 123.576 1159.89 125.309C1163.82 126.976 1166.96 129.076 1169.29 131.609C1171.62 134.142 1172.79 137.142 1172.79 140.609C1172.79 143.809 1172.12 146.342 1170.79 148.209C1169.52 150.009 1167.86 151.276 1165.79 152.009C1163.72 152.742 1161.56 153.109 1159.29 153.109C1155.62 153.109 1152.02 152.642 1148.49 151.709C1145.02 150.709 1140.79 150.209 1135.79 150.209C1129.32 150.209 1124.36 152.142 1120.89 156.009C1117.49 159.876 1115.79 165.376 1115.79 172.509C1115.79 175.176 1115.89 177.809 1116.09 180.409C1116.36 182.942 1116.69 185.376 1117.09 187.709C1117.49 190.042 1117.86 192.276 1118.19 194.409C1118.59 196.542 1118.92 198.509 1119.19 200.309C1119.46 202.042 1119.59 203.576 1119.59 204.909C1119.59 210.776 1118.26 215.142 1115.59 218.009C1112.92 220.809 1108.72 222.209 1102.99 222.209Z" fill="#FFFFFF"/>
<path fill-rule="evenodd" clip-rule="evenodd" d="M12.1978 4.67188L15.9889 10.5564C27.3808 28.2392 39.3253 58.575 44.0407 97.8717C47.0004 122.536 46.0182 145.588 44.999 163.796C44.9058 165.462 44.8127 167.08 44.7224 168.65C44.3134 175.76 43.9607 181.891 43.9025 187.069C43.8284 193.663 44.2846 197.429 45.0084 199.239L45.0912 199.446L45.1607 199.657C45.6416 201.124 47.2326 203.387 50.525 205.706C53.7034 207.945 57.9378 209.845 62.6809 210.863C72.0626 212.878 82.5028 211.315 90.495 203.499C91.97 201.61 93.1554 198.324 93.884 192.578C94.5237 187.533 94.7188 181.571 94.953 174.411C94.992 173.219 95.0321 171.994 95.0755 170.734C95.6727 153.404 96.8738 131.221 105.412 106.949L105.501 106.693L105.611 106.446C115.116 84.901 130.409 73.8629 145.808 69.1499C160.904 64.5298 175.804 66.0555 185.174 68.9665L191.859 71.0434L187.706 84.413L181.021 82.3362C173.901 80.1242 161.906 78.8642 149.905 82.537C138.262 86.1004 126.316 94.3734 118.528 111.852C110.817 133.904 109.654 154.199 109.067 171.216C109.026 172.408 108.988 173.593 108.95 174.767C108.72 181.856 108.502 188.586 107.773 194.339C106.933 200.964 105.285 207.664 101.046 212.712L100.85 212.945L100.635 213.16C88.4855 225.31 72.6911 227.333 59.741 224.551C53.2709 223.162 47.2732 220.539 42.4634 217.152C37.8294 213.888 33.7236 209.494 31.9281 204.23C30.1234 199.557 29.8318 193.275 29.9034 186.912C29.9656 181.378 30.3425 174.835 30.7528 167.713C30.8415 166.172 30.9319 164.604 31.0209 163.014C32.034 144.914 32.944 122.903 30.1405 99.5397C25.6348 61.9914 14.2812 33.7561 4.21978 18.1386L0.428711 12.254L12.1978 4.67188Z" fill="#FFFFFF"/>
<path d="M42.9347 1.72106L21.5586 8.8577L25.9497 15.8679C35.159 30.5699 42.1229 46.5639 46.6115 63.3214C49.6147 74.5333 51.4911 86.017 52.2126 97.6017L53.7365 122.067L52.3817 164.204V187.449C52.3817 192.323 54.939 196.84 59.1185 199.347C61.2751 200.641 63.7427 201.325 66.2577 201.325H70.2888C74.998 201.325 79.4683 199.251 82.5102 195.657C84.7684 192.988 86.091 189.653 86.2759 186.162L88.3496 147.013C88.6611 141.134 89.4339 135.289 90.6609 129.531L93.9856 113.931C97.199 98.8528 105.49 85.334 117.472 75.6337C126.785 68.0949 137.941 63.1777 149.789 61.3898L152.224 61.0223C162.318 59.4989 172.602 59.7729 182.601 61.8315L183.091 61.9323L164.808 41.3323C152.517 43.4177 140.799 48.0582 130.413 54.9541L119.903 61.9323L126.614 56.6798C137.398 48.2396 149.839 42.1657 163.127 38.8534L142.073 21.3077C128.515 32.0973 116.988 45.2176 108.036 60.0529L104.687 65.6013L109.378 56.3003C116.334 42.5092 125.801 30.1369 137.295 19.8186C131.923 14.7065 125.809 10.4354 119.161 7.15005L117.355 6.25735C100.361 36.4111 88.3247 69.1007 81.7076 103.075L81.0913 106.239C85.4674 74.7005 94.0366 43.8879 106.572 14.6185L110.77 4.81666C102.213 2.75577 93.5147 1.33316 84.7471 0.560544L83.6611 0.464844C83.8608 26.9341 81.9128 53.376 77.8364 79.5302L71.2066 122.067L76.5421 77.1507C79.5662 51.6926 79.8508 25.9836 77.3911 0.464844L51.1276 1.72106L59.7647 35.432C64.588 61.9871 66.101 89.0378 64.269 115.965L62.4143 143.227L63.1269 92.4196C63.3646 75.4786 61.5596 58.5706 57.7512 42.0615C56.733 37.6479 55.3879 33.3162 53.727 29.1023L42.9347 1.72106Z" fill="#FFFFFF"/>
</svg>
