<?xml version="1.0" encoding="UTF-8" standalone="no"?>
<!DOCTYPE svg PUBLIC "-//W3C//DTD SVG 1.1//EN" "http://www.w3.org/Graphics/SVG/1.1/DTD/svg11.dtd">
<svg width="100%" height="100%" viewBox="0 0 80 80" version="1.1" xmlns="http://www.w3.org/2000/svg" xmlns:xlink="http://www.w3.org/1999/xlink" xml:space="preserve" xmlns:serif="http://www.serif.com/" style="fill-rule:evenodd;clip-rule:evenodd;stroke-linecap:round;stroke-linejoin:round;stroke-miterlimit:1.5;">
    <g transform="matrix(0.542342,0,0,0.542342,31.0835,1.35586)">
        <path d="M66.696,30.151C64.885,30.985 62.722,31.43 60.27,31.43L42.18,31.43C38.512,31.43 35.488,30.433 33.316,28.622C30.917,26.623 29.731,23.83 29.731,20.79C29.731,15.649 33.581,11.914 38.432,10.634C40.107,5.074 45.29,1.118 51.225,1.118C51.439,1.118 51.652,1.124 51.863,1.134C54.274,-1.13 57.51,-2.5 61.006,-2.5C64.663,-2.5 68.036,-1 70.476,1.454C73.67,0.728 77.119,1.168 80.117,2.899C85.257,5.867 87.768,11.884 86.438,17.536C90,21.071 91.467,26.23 88.896,30.682C87.376,33.315 84.952,35.14 81.875,35.672C79.088,36.154 75.971,35.506 72.795,33.672L66.696,30.151ZM67.985,25.122L75.295,29.342C77.31,30.505 79.256,31.051 81.023,30.745C82.585,30.475 83.794,29.518 84.566,28.182C86.166,25.41 84.551,22.266 82.046,20.32C81.176,19.645 80.851,18.481 81.244,17.453C82.705,13.633 81.159,9.274 77.617,7.229C75.402,5.95 72.793,5.803 70.519,6.646C69.488,7.028 68.328,6.691 67.662,5.817C66.119,3.792 63.686,2.5 61.006,2.5C58.523,2.5 56.252,3.609 54.705,5.381C54.144,6.024 53.295,6.336 52.452,6.21C52.05,6.149 51.641,6.118 51.225,6.118C47.135,6.118 43.616,9.12 42.972,13.159C42.798,14.246 41.935,15.091 40.844,15.242C37.702,15.674 34.731,17.589 34.731,20.79C34.731,22.333 35.299,23.766 36.518,24.781C37.895,25.929 39.853,26.43 42.18,26.43L60.27,26.43C62.298,26.43 64.045,26.046 65.381,25.186C66.168,24.678 67.174,24.653 67.985,25.122Z" style="fill:rgb(67,67,67);"/>
    </g>
    <g transform="matrix(0.928197,-0.232942,0.272139,0.95679,9.02651,4.9909)">
        <path d="M29.388,19.121L11.962,28.907" style="fill:none;stroke:rgb(0,8,134);stroke-width:2.52px;"/>
    </g>
    <g transform="matrix(0.804261,-0.10983,0.344634,0.884777,2.89587,17.4858)">
        <path d="M29.388,19.121L11.962,28.907" style="fill:none;stroke:rgb(0,8,134);stroke-width:2.55px;"/>
    </g>
    <g transform="matrix(1.00112,-0.305377,0.229485,0.99916,-9.89386,18.6115)">
        <path d="M29.388,19.121L11.962,28.907" style="fill:none;stroke:rgb(0,8,134);stroke-width:2.5px;"/>
    </g>
    <g transform="matrix(0.749094,-0.0550306,0.376903,0.852723,-14.5754,29.159)">
        <path d="M29.388,19.121L11.962,28.907" style="fill:none;stroke:rgb(0,8,134);stroke-width:2.56px;"/>
    </g>
    <g transform="matrix(0.928197,-0.232942,0.272139,0.95679,-8.1561,36.5977)">
        <path d="M29.388,19.121L11.962,28.907" style="fill:none;stroke:rgb(0,8,134);stroke-width:2.52px;"/>
    </g>
    <g transform="matrix(1.08114,-0.384868,0.182676,1.04566,11.7144,18.779)">
        <path d="M29.388,19.121L11.962,28.907" style="fill:none;stroke:rgb(0,8,134);stroke-width:2.48px;"/>
    </g>
    <g transform="matrix(1.28529,-0.587663,0.0632597,1.16428,30.9506,17.6052)">
        <path d="M29.388,19.121L11.962,28.907" style="fill:none;stroke:rgb(0,8,134);stroke-width:2.41px;"/>
    </g>
    <g transform="matrix(1.08114,-0.384868,0.182676,1.04566,9.91079,39.2569)">
        <path d="M29.388,19.121L11.962,28.907" style="fill:none;stroke:rgb(0,8,134);stroke-width:2.48px;"/>
    </g>
    <g transform="matrix(0.84205,-0.147368,0.322529,0.906735,3.83873,53.4595)">
        <path d="M29.388,19.121L11.962,28.907" style="fill:none;stroke:rgb(0,8,134);stroke-width:2.54px;"/>
    </g>
    <g transform="matrix(0.761558,-0.0674111,0.369612,0.859965,18.7056,45.6223)">
        <path d="M29.388,19.121L11.962,28.907" style="fill:none;stroke:rgb(0,8,134);stroke-width:2.56px;"/>
    </g>
    <g transform="matrix(0.788552,-0.094226,0.353822,0.87565,-11.7927,46.8139)">
        <path d="M29.388,19.121L11.962,28.907" style="fill:none;stroke:rgb(0,8,134);stroke-width:2.55px;"/>
    </g>
    <g transform="matrix(0.704454,-0.0106874,0.403014,0.826785,-6.11836,51.6394)">
        <path d="M29.388,19.121L11.962,28.907" style="fill:none;stroke:rgb(0,8,134);stroke-width:2.57px;"/>
    </g>
    <g transform="matrix(0.928197,-0.232942,0.272139,0.95679,8.21174,31.539)">
        <path d="M29.388,19.121L11.962,28.907" style="fill:none;stroke:rgb(0,8,134);stroke-width:2.52px;"/>
    </g>
    <g transform="matrix(0.928197,-0.232942,0.272139,0.95679,24.357,33.6272)">
        <path d="M29.388,19.121L11.962,28.907" style="fill:none;stroke:rgb(0,8,134);stroke-width:2.52px;"/>
    </g>
    <g transform="matrix(0.8319,-0.137286,0.328466,0.900837,47.7156,25.437)">
        <path d="M29.388,19.121L11.962,28.907" style="fill:none;stroke:rgb(0,8,134);stroke-width:2.55px;"/>
    </g>
    <g transform="matrix(0.928197,-0.232942,0.272139,0.95679,36.5768,29.5123)">
        <path d="M29.388,19.121L11.962,28.907" style="fill:none;stroke:rgb(0,8,134);stroke-width:2.52px;"/>
    </g>
    <g transform="matrix(0.788075,-0.0937522,0.354101,0.875373,42.9788,16.1452)">
        <path d="M29.388,19.121L11.962,28.907" style="fill:none;stroke:rgb(0,8,134);stroke-width:2.55px;"/>
    </g>
    <g transform="matrix(1.08114,-0.384868,0.182676,1.04566,25.1136,47.7265)">
        <path d="M29.388,19.121L11.962,28.907" style="fill:none;stroke:rgb(0,8,134);stroke-width:2.48px;"/>
    </g>
    <g transform="matrix(0.928197,-0.232942,0.272139,0.95679,25.719,13.0069)">
        <path d="M29.388,19.121L11.962,28.907" style="fill:none;stroke:rgb(0,8,134);stroke-width:2.52px;"/>
    </g>
</svg>
