<svg width="175" height="41" viewBox="0 0 175 41" fill="none" xmlns="http://www.w3.org/2000/svg">
<g clip-path="url(#clip0_1117_20)">
<path d="M171 0.830078H4C1.79086 0.830078 0 2.62094 0 4.83008V36.8301C0 39.0392 1.79086 40.8301 4 40.8301H171C173.209 40.8301 175 39.0392 175 36.8301V4.83008C175 2.62094 173.209 0.830078 171 0.830078Z" fill="#F2F2F2"/>
<mask id="mask0_1117_20" style="mask-type:luminance" maskUnits="userSpaceOnUse" x="12" y="10" width="20" height="21">
<path d="M32 10.8301H12V30.8301H32V10.8301Z" fill="white"/>
</mask>
<g mask="url(#mask0_1117_20)">
<path d="M31.6 21.0572C31.6 20.3481 31.5364 19.6663 31.4182 19.0117H22V22.8799H27.3818C27.15 24.1299 26.4455 25.189 25.3864 25.8981V28.4072H28.6182C30.5091 26.6663 31.6 24.1026 31.6 21.0572Z" fill="#4285F4"/>
<path d="M22.0009 30.8305C24.7009 30.8305 26.9645 29.935 28.619 28.4078L25.3872 25.8987C24.4918 26.4987 23.3463 26.8532 22.0009 26.8532C19.3963 26.8532 17.1918 25.0941 16.4054 22.7305H13.0645V25.3214C14.71 28.5896 18.0918 30.8305 22.0009 30.8305Z" fill="#34A853"/>
<path d="M16.4045 22.7307C16.2045 22.1307 16.0909 21.4898 16.0909 20.8307C16.0909 20.1716 16.2045 19.5307 16.4045 18.9307V16.3398H13.0636C12.3864 17.6898 12 19.2171 12 20.8307C12 22.4443 12.3864 23.9716 13.0636 25.3216L16.4045 22.7307Z" fill="#FBBC04"/>
<path d="M22.0009 14.8074C23.469 14.8074 24.7872 15.3119 25.8236 16.3028L28.6918 13.4346C26.96 11.821 24.6963 10.8301 22.0009 10.8301C18.0918 10.8301 14.71 13.071 13.0645 16.3392L16.4054 18.9301C17.1918 16.5665 19.3963 14.8074 22.0009 14.8074Z" fill="#E94235"/>
</g>
<path d="M48.249 23.2666C48.249 23.0615 48.2171 22.8793 48.1533 22.7197C48.0941 22.5602 47.987 22.4144 47.8321 22.2822C47.6771 22.1501 47.4584 22.0225 47.1758 21.8994C46.8978 21.7718 46.5423 21.6419 46.1094 21.5098C45.6354 21.364 45.1979 21.2022 44.7969 21.0244C44.4004 20.8421 44.0541 20.6325 43.7578 20.3955C43.4616 20.154 43.2315 19.8783 43.0674 19.5684C42.9033 19.2539 42.8213 18.8916 42.8213 18.4815C42.8213 18.0759 42.9056 17.7067 43.0742 17.374C43.2474 17.0414 43.4912 16.7543 43.8057 16.5127C44.1247 16.2666 44.5007 16.0775 44.9336 15.9453C45.3666 15.8086 45.8451 15.7403 46.3692 15.7403C47.1074 15.7403 47.7432 15.877 48.2764 16.1504C48.8142 16.4239 49.2266 16.7907 49.5137 17.251C49.8054 17.7113 49.9512 18.2194 49.9512 18.7754H48.249C48.249 18.4473 48.1784 18.1579 48.0371 17.9072C47.9004 17.652 47.6908 17.4515 47.4082 17.3057C47.1302 17.1599 46.777 17.0869 46.3487 17.0869C45.9431 17.0869 45.6058 17.1485 45.3369 17.2715C45.0681 17.3946 44.8675 17.5609 44.7354 17.7705C44.6032 17.9802 44.5371 18.2171 44.5371 18.4815C44.5371 18.6683 44.5804 18.8392 44.667 18.9942C44.7536 19.1446 44.8858 19.2858 45.0635 19.418C45.2412 19.5456 45.4645 19.6664 45.7334 19.7803C46.0023 19.8942 46.319 20.0036 46.6836 20.1084C47.235 20.2725 47.7158 20.4548 48.126 20.6553C48.5362 20.8513 48.878 21.0746 49.1514 21.3252C49.4248 21.5759 49.6299 21.8607 49.7666 22.1797C49.9033 22.4942 49.9717 22.8519 49.9717 23.253C49.9717 23.6722 49.8874 24.0505 49.7188 24.3877C49.5502 24.7204 49.3086 25.0052 48.9942 25.2422C48.6843 25.4746 48.3106 25.6546 47.8731 25.7822C47.4401 25.9053 46.9571 25.9668 46.4239 25.9668C45.9453 25.9668 45.4737 25.903 45.0088 25.7754C44.5485 25.6478 44.1293 25.4541 43.751 25.1944C43.3727 24.93 43.072 24.6019 42.8487 24.21C42.6253 23.8135 42.5137 23.3509 42.5137 22.8223H44.2295C44.2295 23.1459 44.2842 23.4216 44.3936 23.6494C44.5075 23.8773 44.6647 24.0641 44.8653 24.21C45.0658 24.3513 45.2982 24.4561 45.5625 24.5244C45.8314 24.5928 46.1185 24.627 46.4239 24.627C46.8249 24.627 47.1599 24.57 47.4287 24.4561C47.7022 24.3421 47.9072 24.1826 48.044 23.9776C48.1807 23.7725 48.249 23.5355 48.249 23.2666ZM53.0889 18.4336V25.8301H51.4346V18.4336H53.0889ZM51.3252 16.4922C51.3252 16.2416 51.4072 16.0342 51.5713 15.8701C51.7399 15.7015 51.9724 15.6172 52.2686 15.6172C52.5602 15.6172 52.7904 15.7015 52.959 15.8701C53.1276 16.0342 53.2119 16.2416 53.2119 16.4922C53.2119 16.7383 53.1276 16.9434 52.959 17.1074C52.7904 17.2715 52.5602 17.3535 52.2686 17.3535C51.9724 17.3535 51.7399 17.2715 51.5713 17.1074C51.4072 16.9434 51.3252 16.7383 51.3252 16.4922ZM59.6309 18.4336H61.128V25.625C61.128 26.2904 60.9867 26.8555 60.7041 27.3203C60.4216 27.7852 60.0274 28.1384 59.5215 28.3799C59.0156 28.626 58.43 28.749 57.7647 28.749C57.4821 28.749 57.1677 28.708 56.8213 28.626C56.4795 28.544 56.1468 28.4118 55.8233 28.2295C55.5043 28.0518 55.2377 27.8171 55.0235 27.5254L55.7959 26.5547C56.0602 26.8692 56.3519 27.0993 56.6709 27.2451C56.9899 27.391 57.3249 27.4639 57.6758 27.4639C58.0541 27.4639 58.3753 27.3933 58.6397 27.252C58.9086 27.1153 59.1159 26.9125 59.2617 26.6436C59.4076 26.3747 59.4805 26.0466 59.4805 25.6592V20.1084L59.6309 18.4336ZM54.6065 22.2139V22.0703C54.6065 21.5098 54.6748 20.9994 54.8115 20.5391C54.9483 20.0742 55.1442 19.6755 55.3994 19.3428C55.6546 19.0056 55.9645 18.7481 56.3291 18.5703C56.6937 18.388 57.1061 18.2969 57.5664 18.2969C58.0449 18.2969 58.4528 18.3835 58.7901 18.5567C59.1319 18.7298 59.4167 18.9782 59.6446 19.3018C59.8724 19.6208 60.0502 20.0036 60.1778 20.4502C60.3099 20.8923 60.4079 21.3845 60.4717 21.9268V22.3848C60.4125 22.9134 60.3122 23.3965 60.1709 23.834C60.0296 24.2715 59.8428 24.6498 59.6104 24.9688C59.378 25.2878 59.0908 25.5339 58.749 25.7071C58.4118 25.8802 58.013 25.9668 57.5528 25.9668C57.1016 25.9668 56.6937 25.8734 56.3291 25.6865C55.9691 25.4997 55.6592 25.2377 55.3994 24.9004C55.1442 24.5632 54.9483 24.1667 54.8115 23.711C54.6748 23.2507 54.6065 22.7516 54.6065 22.2139ZM56.2539 22.0703V22.2139C56.2539 22.5511 56.2858 22.8656 56.3496 23.1572C56.418 23.4489 56.5205 23.7064 56.6572 23.9297C56.7985 24.1485 56.9763 24.3216 57.1905 24.4492C57.4092 24.5723 57.6667 24.6338 57.9629 24.6338C58.3503 24.6338 58.667 24.5518 58.9131 24.3877C59.1638 24.2237 59.3552 24.0026 59.4873 23.7246C59.624 23.4421 59.7198 23.1276 59.7744 22.7813V21.544C59.7471 21.2751 59.6901 21.0244 59.6035 20.792C59.5215 20.5596 59.4099 20.3568 59.2686 20.1836C59.1273 20.0059 58.9496 19.8692 58.7354 19.7735C58.5212 19.6732 58.2683 19.6231 57.9766 19.6231C57.6804 19.6231 57.4229 19.6869 57.2041 19.8145C56.9854 19.9421 56.8054 20.1175 56.6641 20.3408C56.5274 20.5641 56.4248 20.8239 56.3565 21.1201C56.2881 21.4164 56.2539 21.7331 56.2539 22.0703ZM64.4707 20.0127V25.8301H62.8233V18.4336H64.375L64.4707 20.0127ZM64.1768 21.8584L63.6436 21.8516C63.6481 21.3275 63.7211 20.8467 63.8623 20.4092C64.0082 19.9717 64.2087 19.5957 64.4639 19.2813C64.7237 18.9668 65.0336 18.7253 65.3936 18.5567C65.7536 18.3835 66.1546 18.2969 66.5967 18.2969C66.9522 18.2969 67.2735 18.347 67.5606 18.4473C67.8522 18.543 68.1006 18.7002 68.3057 18.919C68.5153 19.1377 68.6748 19.4225 68.7842 19.7735C68.8936 20.1198 68.9483 20.5459 68.9483 21.0518V25.8301H67.294V21.0449C67.294 20.6895 67.2416 20.4092 67.1367 20.2041C67.0365 19.9945 66.8884 19.8464 66.6924 19.7598C66.501 19.6686 66.2617 19.6231 65.9746 19.6231C65.6921 19.6231 65.4392 19.6823 65.2158 19.8008C64.9925 19.9193 64.8034 20.0811 64.6485 20.2862C64.4981 20.4912 64.3819 20.7282 64.2998 20.9971C64.2178 21.266 64.1768 21.5531 64.1768 21.8584ZM75.8799 18.4336V25.8301H74.2256V18.4336H75.8799ZM74.1162 16.4922C74.1162 16.2416 74.1983 16.0342 74.3623 15.8701C74.5309 15.7015 74.7634 15.6172 75.0596 15.6172C75.3513 15.6172 75.5814 15.7015 75.75 15.8701C75.9186 16.0342 76.003 16.2416 76.003 16.4922C76.003 16.7383 75.9186 16.9434 75.75 17.1074C75.5814 17.2715 75.3513 17.3535 75.0596 17.3535C74.7634 17.3535 74.5309 17.2715 74.3623 17.1074C74.1983 16.9434 74.1162 16.7383 74.1162 16.4922ZM79.3184 20.0127V25.8301H77.6709V18.4336H79.2227L79.3184 20.0127ZM79.0244 21.8584L78.4912 21.8516C78.4958 21.3275 78.5687 20.8467 78.71 20.4092C78.8558 19.9717 79.0563 19.5957 79.3115 19.2813C79.5713 18.9668 79.8812 18.7253 80.2412 18.5567C80.6013 18.3835 81.0023 18.2969 81.4444 18.2969C81.7998 18.2969 82.1211 18.347 82.4082 18.4473C82.6999 18.543 82.9483 18.7002 83.1533 18.919C83.363 19.1377 83.5225 19.4225 83.6319 19.7735C83.7412 20.1198 83.7959 20.5459 83.7959 21.0518V25.8301H82.1416V21.0449C82.1416 20.6895 82.0892 20.4092 81.9844 20.2041C81.8841 19.9945 81.736 19.8464 81.5401 19.7598C81.3487 19.6686 81.1094 19.6231 80.8223 19.6231C80.5397 19.6231 80.2868 19.6823 80.0635 19.8008C79.8402 19.9193 79.6511 20.0811 79.4961 20.2862C79.3457 20.4912 79.2295 20.7282 79.1475 20.9971C79.0655 21.266 79.0244 21.5531 79.0244 21.8584ZM90.9737 24.1895L92.6826 18.4336H93.7354L93.4483 20.1563L91.7256 25.8301H90.7822L90.9737 24.1895ZM89.9688 18.4336L91.3018 24.2168L91.4112 25.8301H90.3584L88.3555 18.4336H89.9688ZM95.335 24.1485L96.627 18.4336H98.2334L96.2373 25.8301H95.1846L95.335 24.1485ZM93.9131 18.4336L95.6016 24.1211L95.8135 25.8301H94.8701L93.127 20.1494L92.8399 18.4336H93.9131ZM101.118 18.4336V25.8301H99.4639V18.4336H101.118ZM99.3545 16.4922C99.3545 16.2416 99.4365 16.0342 99.6006 15.8701C99.7692 15.7015 100.002 15.6172 100.298 15.6172C100.59 15.6172 100.82 15.7015 100.988 15.8701C101.157 16.0342 101.241 16.2416 101.241 16.4922C101.241 16.7383 101.157 16.9434 100.988 17.1074C100.82 17.2715 100.59 17.3535 100.298 17.3535C100.002 17.3535 99.7692 17.2715 99.6006 17.1074C99.4365 16.9434 99.3545 16.7383 99.3545 16.4922ZM106.313 18.4336V19.6367H102.144V18.4336H106.313ZM103.347 16.6221H104.994V23.7862C104.994 24.014 105.026 24.1895 105.09 24.3125C105.158 24.431 105.252 24.5108 105.37 24.5518C105.489 24.5928 105.628 24.6133 105.787 24.6133C105.901 24.6133 106.01 24.6065 106.115 24.5928C106.22 24.5791 106.304 24.5655 106.368 24.5518L106.375 25.8096C106.238 25.8506 106.079 25.8871 105.897 25.919C105.719 25.9509 105.514 25.9668 105.281 25.9668C104.903 25.9668 104.568 25.9007 104.276 25.7686C103.985 25.6319 103.757 25.4108 103.593 25.1055C103.429 24.8002 103.347 24.3946 103.347 23.8887V16.6221ZM109.212 15.3301V25.8301H107.571V15.3301H109.212ZM108.925 21.8584L108.392 21.8516C108.396 21.3412 108.467 20.8695 108.604 20.4365C108.745 20.0036 108.941 19.6276 109.191 19.3086C109.447 18.985 109.752 18.7367 110.107 18.5635C110.463 18.3858 110.857 18.2969 111.29 18.2969C111.655 18.2969 111.983 18.347 112.274 18.4473C112.571 18.5475 112.826 18.7093 113.04 18.9326C113.254 19.1514 113.416 19.4385 113.525 19.794C113.639 20.1449 113.696 20.5733 113.696 21.0791V25.8301H112.042V21.0655C112.042 20.71 111.99 20.4274 111.885 20.2178C111.785 20.0082 111.636 19.8578 111.44 19.7666C111.244 19.6709 111.005 19.6231 110.723 19.6231C110.426 19.6231 110.164 19.6823 109.937 19.8008C109.713 19.9193 109.526 20.0811 109.376 20.2862C109.226 20.4912 109.112 20.7282 109.034 20.9971C108.961 21.266 108.925 21.5531 108.925 21.8584ZM126.657 20.7442V24.5449C126.516 24.7318 126.295 24.9369 125.994 25.1602C125.698 25.3789 125.304 25.5681 124.812 25.7276C124.319 25.8871 123.706 25.9668 122.973 25.9668C122.348 25.9668 121.776 25.862 121.257 25.6524C120.737 25.4382 120.288 25.126 119.91 24.7158C119.536 24.3057 119.247 23.8067 119.042 23.2188C118.837 22.6263 118.734 21.9518 118.734 21.1953V20.5049C118.734 19.753 118.828 19.083 119.015 18.4951C119.206 17.9027 119.48 17.4014 119.835 16.9912C120.19 16.5811 120.619 16.2712 121.12 16.0615C121.626 15.8474 122.198 15.7403 122.836 15.7403C123.652 15.7403 124.326 15.877 124.859 16.1504C125.397 16.4193 125.812 16.793 126.104 17.2715C126.395 17.75 126.58 18.2969 126.657 18.9121H124.976C124.921 18.5658 124.814 18.2559 124.654 17.9824C124.499 17.709 124.276 17.4948 123.984 17.3399C123.697 17.1804 123.324 17.1006 122.863 17.1006C122.467 17.1006 122.118 17.1758 121.817 17.3262C121.517 17.4766 121.266 17.6976 121.065 17.9893C120.869 18.2809 120.721 18.6364 120.621 19.0557C120.521 19.475 120.471 19.9535 120.471 20.4912V21.1953C120.471 21.7422 120.528 22.2276 120.642 22.6514C120.76 23.0752 120.929 23.433 121.147 23.7246C121.371 24.0163 121.642 24.2373 121.961 24.3877C122.28 24.5336 122.64 24.6065 123.041 24.6065C123.433 24.6065 123.754 24.5746 124.005 24.5108C124.256 24.4424 124.454 24.3627 124.6 24.2715C124.75 24.1758 124.866 24.0847 124.948 23.9981V22.0225H122.877V20.7442H126.657ZM128.079 22.2139V22.0567C128.079 21.5235 128.157 21.029 128.312 20.5733C128.466 20.113 128.69 19.7142 128.981 19.377C129.278 19.0352 129.638 18.7709 130.062 18.584C130.49 18.3926 130.973 18.2969 131.511 18.2969C132.053 18.2969 132.536 18.3926 132.96 18.584C133.388 18.7709 133.751 19.0352 134.047 19.377C134.343 19.7142 134.569 20.113 134.724 20.5733C134.879 21.029 134.956 21.5235 134.956 22.0567V22.2139C134.956 22.7471 134.879 23.2416 134.724 23.6973C134.569 24.153 134.343 24.5518 134.047 24.8936C133.751 25.2308 133.391 25.4951 132.967 25.6865C132.543 25.8734 132.062 25.9668 131.524 25.9668C130.982 25.9668 130.497 25.8734 130.068 25.6865C129.645 25.4951 129.285 25.2308 128.988 24.8936C128.692 24.5518 128.466 24.153 128.312 23.6973C128.157 23.2416 128.079 22.7471 128.079 22.2139ZM129.727 22.0567V22.2139C129.727 22.5466 129.761 22.861 129.829 23.1572C129.897 23.4535 130.005 23.7132 130.15 23.9365C130.296 24.1599 130.483 24.3353 130.711 24.4629C130.939 24.5905 131.21 24.6543 131.524 24.6543C131.83 24.6543 132.094 24.5905 132.317 24.4629C132.545 24.3353 132.732 24.1599 132.878 23.9365C133.024 23.7132 133.131 23.4535 133.199 23.1572C133.272 22.861 133.309 22.5466 133.309 22.2139V22.0567C133.309 21.7285 133.272 21.4186 133.199 21.127C133.131 20.8308 133.022 20.5687 132.871 20.3408C132.725 20.113 132.538 19.9352 132.311 19.8076C132.087 19.6755 131.821 19.6094 131.511 19.6094C131.201 19.6094 130.932 19.6755 130.704 19.8076C130.481 19.9352 130.296 20.113 130.15 20.3408C130.005 20.5687 129.897 20.8308 129.829 21.127C129.761 21.4186 129.727 21.7285 129.727 22.0567ZM136.022 22.2139V22.0567C136.022 21.5235 136.1 21.029 136.255 20.5733C136.41 20.113 136.633 19.7142 136.925 19.377C137.221 19.0352 137.581 18.7709 138.005 18.584C138.433 18.3926 138.916 18.2969 139.454 18.2969C139.996 18.2969 140.48 18.3926 140.903 18.584C141.332 18.7709 141.694 19.0352 141.99 19.377C142.286 19.7142 142.512 20.113 142.667 20.5733C142.822 21.029 142.899 21.5235 142.899 22.0567V22.2139C142.899 22.7471 142.822 23.2416 142.667 23.6973C142.512 24.153 142.286 24.5518 141.99 24.8936C141.694 25.2308 141.334 25.4951 140.91 25.6865C140.486 25.8734 140.006 25.9668 139.468 25.9668C138.925 25.9668 138.44 25.8734 138.012 25.6865C137.588 25.4951 137.228 25.2308 136.932 24.8936C136.635 24.5518 136.41 24.153 136.255 23.6973C136.1 23.2416 136.022 22.7471 136.022 22.2139ZM137.67 22.0567V22.2139C137.67 22.5466 137.704 22.861 137.772 23.1572C137.841 23.4535 137.948 23.7132 138.094 23.9365C138.24 24.1599 138.426 24.3353 138.654 24.4629C138.882 24.5905 139.153 24.6543 139.468 24.6543C139.773 24.6543 140.037 24.5905 140.261 24.4629C140.489 24.3353 140.675 24.1599 140.821 23.9365C140.967 23.7132 141.074 23.4535 141.143 23.1572C141.216 22.861 141.252 22.5466 141.252 22.2139V22.0567C141.252 21.7285 141.216 21.4186 141.143 21.127C141.074 20.8308 140.965 20.5687 140.814 20.3408C140.669 20.113 140.482 19.9352 140.254 19.8076C140.031 19.6755 139.764 19.6094 139.454 19.6094C139.144 19.6094 138.875 19.6755 138.647 19.8076C138.424 19.9352 138.24 20.113 138.094 20.3408C137.948 20.5687 137.841 20.8308 137.772 21.127C137.704 21.4186 137.67 21.7285 137.67 22.0567ZM149.018 18.4336H150.515V25.625C150.515 26.2904 150.373 26.8555 150.091 27.3203C149.808 27.7852 149.414 28.1384 148.908 28.3799C148.402 28.626 147.817 28.749 147.151 28.749C146.869 28.749 146.554 28.708 146.208 28.626C145.866 28.544 145.534 28.4118 145.21 28.2295C144.891 28.0518 144.624 27.8171 144.41 27.5254L145.183 26.5547C145.447 26.8692 145.739 27.0993 146.058 27.2451C146.377 27.391 146.712 27.4639 147.063 27.4639C147.441 27.4639 147.762 27.3933 148.026 27.252C148.295 27.1153 148.503 26.9125 148.648 26.6436C148.794 26.3747 148.867 26.0466 148.867 25.6592V20.1084L149.018 18.4336ZM143.993 22.2139V22.0703C143.993 21.5098 144.062 20.9994 144.198 20.5391C144.335 20.0742 144.531 19.6755 144.786 19.3428C145.041 19.0056 145.351 18.7481 145.716 18.5703C146.08 18.388 146.493 18.2969 146.953 18.2969C147.432 18.2969 147.84 18.3835 148.177 18.5567C148.519 18.7298 148.803 18.9782 149.031 19.3018C149.259 19.6208 149.437 20.0036 149.564 20.4502C149.697 20.8923 149.795 21.3845 149.858 21.9268V22.3848C149.799 22.9134 149.699 23.3965 149.558 23.834C149.416 24.2715 149.23 24.6498 148.997 24.9688C148.765 25.2878 148.478 25.5339 148.136 25.7071C147.799 25.8802 147.4 25.9668 146.939 25.9668C146.488 25.9668 146.08 25.8734 145.716 25.6865C145.356 25.4997 145.046 25.2377 144.786 24.9004C144.531 24.5632 144.335 24.1667 144.198 23.711C144.062 23.2507 143.993 22.7516 143.993 22.2139ZM145.641 22.0703V22.2139C145.641 22.5511 145.673 22.8656 145.736 23.1572C145.805 23.4489 145.907 23.7064 146.044 23.9297C146.185 24.1485 146.363 24.3216 146.577 24.4492C146.796 24.5723 147.053 24.6338 147.35 24.6338C147.737 24.6338 148.054 24.5518 148.3 24.3877C148.55 24.2237 148.742 24.0026 148.874 23.7246C149.011 23.4421 149.106 23.1276 149.161 22.7813V21.544C149.134 21.2751 149.077 21.0244 148.99 20.792C148.908 20.5596 148.797 20.3568 148.655 20.1836C148.514 20.0059 148.336 19.8692 148.122 19.7735C147.908 19.6732 147.655 19.6231 147.363 19.6231C147.067 19.6231 146.81 19.6869 146.591 19.8145C146.372 19.9421 146.192 20.1175 146.051 20.3408C145.914 20.5641 145.812 20.8239 145.743 21.1201C145.675 21.4164 145.641 21.7331 145.641 22.0703ZM153.987 15.3301V25.8301H152.333V15.3301H153.987ZM159.053 25.9668C158.506 25.9668 158.011 25.878 157.569 25.7002C157.132 25.5179 156.758 25.265 156.448 24.9414C156.143 24.6179 155.908 24.2373 155.744 23.7998C155.58 23.3623 155.498 22.8906 155.498 22.3848V22.1113C155.498 21.5326 155.582 21.0085 155.751 20.5391C155.92 20.0697 156.154 19.6686 156.455 19.336C156.756 18.9987 157.111 18.7412 157.522 18.5635C157.932 18.3858 158.376 18.2969 158.855 18.2969C159.383 18.2969 159.846 18.3858 160.242 18.5635C160.639 18.7412 160.967 18.9919 161.227 19.3155C161.491 19.6345 161.687 20.015 161.814 20.4571C161.947 20.8991 162.013 21.3867 162.013 21.9199V22.624H156.298V21.4414H160.386V21.3115C160.377 21.0153 160.317 20.7373 160.208 20.4776C160.103 20.2178 159.941 20.0082 159.723 19.8487C159.504 19.6891 159.212 19.6094 158.848 19.6094C158.574 19.6094 158.33 19.6686 158.116 19.7871C157.907 19.9011 157.731 20.0674 157.59 20.2862C157.449 20.5049 157.339 20.7692 157.262 21.0791C157.189 21.3845 157.152 21.7285 157.152 22.1113V22.3848C157.152 22.7084 157.196 23.0091 157.282 23.2871C157.373 23.5606 157.506 23.7998 157.679 24.0049C157.852 24.21 158.062 24.3718 158.308 24.4903C158.554 24.6042 158.834 24.6612 159.148 24.6612C159.545 24.6612 159.898 24.5814 160.208 24.4219C160.518 24.2624 160.787 24.0368 161.015 23.7451L161.883 24.586C161.723 24.8184 161.516 25.0417 161.261 25.2559C161.006 25.4655 160.693 25.6364 160.324 25.7686C159.96 25.9007 159.536 25.9668 159.053 25.9668Z" fill="#1F1F1F"/>
</g>
<defs>
<clipPath id="clip0_1117_20">
<rect width="175" height="40" fill="white" transform="translate(0 0.830078)"/>
</clipPath>
</defs>
</svg>
